<svg width="17" height="14" viewBox="0 0 17 14" fill="none" xmlns="http://www.w3.org/2000/svg">
<mask id="path-1-inside-1_302_834" fill="white">
<ellipse cx="10.3636" cy="0.871166" rx="10.3636" ry="0.871166" transform="matrix(0.812174 0.589568 -0.70636 0.712933 0.638032 -0.486882)"/>
</mask>
<ellipse cx="10.3636" cy="0.871166" rx="10.3636" ry="0.871166" transform="matrix(0.812174 0.589568 -0.70636 0.712933 0.638032 -0.486882)" fill="#696060" fill-opacity="0.84"/>
<path d="M16.0446 11.7648C16.3291 11.4777 16.6863 11.4612 16.7767 11.4612C16.8835 11.4611 16.9381 11.4804 16.9065 11.4719C16.8539 11.4577 16.7215 11.4104 16.4903 11.3017C16.0431 11.0915 15.3985 10.7341 14.5922 10.2441C12.9888 9.2697 10.8398 7.82859 8.53074 6.15242L7.11802 7.57828C9.45758 9.2766 11.6549 10.7515 13.3205 11.7637C14.1488 12.267 14.8695 12.6706 15.4213 12.9301C15.6897 13.0563 15.9653 13.1711 16.217 13.2388C16.3377 13.2713 16.5185 13.3115 16.7242 13.3114C16.9134 13.3113 17.342 13.2739 17.669 12.9439L16.0446 11.7648ZM8.53074 6.15242C6.22168 4.47624 4.20971 2.89683 2.82476 1.70193C2.12833 1.10106 1.61114 0.615107 1.29573 0.27178C1.13269 0.094304 1.05657 -0.00980923 1.03165 -0.0519293C1.01672 -0.0771739 1.04782 -0.0342471 1.06522 0.0559739C1.07994 0.132308 1.11931 0.436662 0.834849 0.723769L-0.789498 -0.455367C-1.11644 -0.125383 -1.08961 0.242712 -1.05879 0.402524C-1.02529 0.576222 -0.949455 0.722363 -0.892324 0.818941C-0.773111 1.02047 -0.595782 1.23443 -0.40652 1.44045C-0.0173156 1.8641 0.565546 2.40678 1.28094 3.02401C2.71966 4.2653 4.77846 5.87996 7.11802 7.57828L8.53074 6.15242ZM0.834849 0.723769C0.550388 1.01088 0.193163 1.02734 0.102777 1.02737C-0.00405255 1.02742 -0.0586092 1.00816 -0.0270736 1.01665C0.025543 1.03081 0.157974 1.07809 0.38916 1.18679C0.836387 1.39707 1.48096 1.75445 2.28725 2.24444C3.89067 3.21883 6.03968 4.65994 8.34873 6.33611L9.76145 4.91025C7.42189 3.21193 5.22462 1.73704 3.55894 0.724814C2.73069 0.221487 2.01001 -0.182093 1.45815 -0.441573C1.18979 -0.567753 0.914211 -0.682558 0.662466 -0.750317C0.54182 -0.782789 0.360994 -0.822964 0.15532 -0.822884C-0.0339106 -0.822811 -0.462556 -0.785352 -0.789498 -0.455367L0.834849 0.723769ZM8.34873 6.33611C10.6578 8.01229 12.6698 9.5917 14.0547 10.7866C14.7511 11.3875 15.2683 11.8734 15.5837 12.2168C15.7468 12.3942 15.8229 12.4983 15.8478 12.5405C15.8628 12.5657 15.8316 12.5228 15.8143 12.4326C15.7995 12.3562 15.7602 12.0519 16.0446 11.7648L17.669 12.9439C17.9959 12.6139 17.9691 12.2458 17.9383 12.086C17.9048 11.9123 17.8289 11.7662 17.7718 11.6696C17.6526 11.4681 17.4753 11.2541 17.286 11.0481C16.8968 10.6244 16.3139 10.0817 15.5985 9.46452C14.1598 8.22323 12.101 6.60857 9.76145 4.91025L8.34873 6.33611Z" fill="black" mask="url(#path-1-inside-1_302_834)"/>
<mask id="path-3-inside-2_302_834" fill="white">
<ellipse cx="10.1631" cy="0.888546" rx="10.1631" ry="0.888546" transform="matrix(0.731973 -0.686609 0.790929 0.617777 -0.585108 13.4292)"/>
</mask>
<ellipse cx="10.1631" cy="0.888546" rx="10.1631" ry="0.888546" transform="matrix(0.731973 -0.686609 0.790929 0.617777 -0.585108 13.4292)" fill="#696060" fill-opacity="0.84"/>
<path d="M14.264 0.708517C13.9589 0.470236 13.9489 0.177945 13.9524 0.0938402C13.9563 0.000328373 13.9816 -0.048407 13.9715 -0.0240269C13.9547 0.0166507 13.8967 0.1252 13.7622 0.317946C13.5022 0.690383 13.0632 1.22693 12.4623 1.89826C11.2679 3.23289 9.50862 5.01761 7.46865 6.93115L9.05051 8.1667C11.1191 6.22634 12.922 4.39913 14.1657 3.00952C14.7839 2.31874 15.2829 1.71508 15.6076 1.24995C15.7654 1.02391 15.9115 0.789336 16.0014 0.572639C16.0446 0.468331 16.0989 0.312345 16.1064 0.134279C16.1134 -0.0343781 16.0815 -0.388524 15.7279 -0.6647L14.264 0.708517ZM7.46865 6.93115C5.42869 8.84468 3.51297 10.5072 2.06931 11.6472C1.34313 12.2206 0.758995 12.6438 0.349441 12.8994C0.137484 13.0317 0.0164885 13.091 -0.0292969 13.1091C-0.0567382 13.1199 -0.00234888 13.0939 0.106086 13.082C0.203611 13.0714 0.544575 13.0532 0.849643 13.2915L-0.614304 14.6647C-0.26072 14.9409 0.154207 14.9358 0.349778 14.9143C0.556258 14.8917 0.732774 14.8312 0.850178 14.7848C1.09408 14.6885 1.35365 14.5425 1.60221 14.3874C2.1137 14.0681 2.77044 13.5877 3.51765 12.9976C5.02079 11.8107 6.98195 10.1071 9.05051 8.1667L7.46865 6.93115ZM0.849643 13.2915C1.15471 13.5298 1.16471 13.8221 1.16119 13.9062C1.15727 13.9997 1.13198 14.0484 1.14209 14.024C1.15895 13.9833 1.21688 13.8748 1.35145 13.6821C1.61145 13.3096 2.05046 12.7731 2.65128 12.1017C3.84572 10.7671 5.605 8.98239 7.64496 7.06885L6.0631 5.8333C3.99454 7.77366 2.19157 9.60087 0.947928 10.9905C0.329705 11.6813 -0.169287 12.2849 -0.494004 12.7501C-0.651804 12.9761 -0.797911 13.2107 -0.887741 13.4274C-0.930982 13.5317 -0.985281 13.6877 -0.992744 13.8657C-0.999813 14.0344 -0.967888 14.3885 -0.614304 14.6647L0.849643 13.2915ZM7.64496 7.06885C9.68492 5.15532 11.6006 3.49279 13.0443 2.35283C13.7705 1.77941 14.3546 1.35622 14.7642 1.10059C14.9761 0.968295 15.0971 0.909 15.1429 0.890913C15.1704 0.880073 15.116 0.906079 15.0075 0.917956C14.91 0.92864 14.569 0.946799 14.264 0.708517L15.7279 -0.6647C15.3743 -0.940877 14.9594 -0.935757 14.7638 -0.914333C14.5574 -0.891715 14.3808 -0.83119 14.2634 -0.78481C14.0195 -0.688457 13.76 -0.542502 13.5114 -0.387359C12.9999 -0.0681097 12.3432 0.412336 11.596 1.00237C10.0928 2.1893 8.13166 3.89294 6.0631 5.8333L7.64496 7.06885Z" fill="black" mask="url(#path-3-inside-2_302_834)"/>
</svg>
