<svg width="16" height="15" viewBox="0 0 16 15" fill="none" xmlns="http://www.w3.org/2000/svg">
<path d="M15.7912 5.19868L11.7911 9.18261C11.3694 9.60258 10.6667 9.29121 10.6667 8.67144V6.56315C6.65069 6.59157 4.9565 7.59185 6.08958 11.5833C6.21411 12.0219 5.73275 12.3616 5.39497 12.091C4.31256 11.2238 3.33333 9.56508 3.33333 7.89079C3.33333 3.67389 6.59997 2.83709 10.6667 2.8133V0.703483C10.6667 0.0831511 11.3699 -0.22722 11.7911 0.192311L15.7912 4.17633C16.0695 4.45357 16.0697 4.92121 15.7912 5.19868ZM10.6667 11.1073V13.125H1.77778V3.75001H3.19211C3.237 3.74997 3.28142 3.74038 3.3227 3.72178C3.36398 3.70319 3.40127 3.67599 3.43233 3.64181C3.84769 3.18572 4.32781 2.82472 4.84939 2.53802C5.15856 2.36807 5.044 1.87501 4.69536 1.87501H1.33333C0.596944 1.87501 0 2.5046 0 3.28126V13.5938C0 14.3704 0.596944 15 1.33333 15H11.1111C11.8475 15 12.4444 14.3704 12.4444 13.5938V10.992C12.4444 10.7492 12.2168 10.5799 11.9997 10.6609C11.6954 10.7744 11.3695 10.8084 11.05 10.7598C10.8481 10.7292 10.6667 10.8921 10.6667 11.1073Z" fill="white"/>
</svg>
