<svg width="32" height="24" viewBox="0 0 32 24" fill="none" xmlns="http://www.w3.org/2000/svg">
<path d="M15.5757 6.22623L5.33376 14.362V23.1428C5.33376 23.3701 5.4274 23.5882 5.59408 23.7489C5.76077 23.9097 5.98685 24 6.22258 24L12.4477 23.9845C12.6826 23.9833 12.9075 23.8925 13.0733 23.7319C13.239 23.5712 13.332 23.3538 13.332 23.1272V17.9993C13.332 17.772 13.4257 17.5539 13.5924 17.3932C13.759 17.2324 13.9851 17.1421 14.2208 17.1421H17.7761C18.0119 17.1421 18.2379 17.2324 18.4046 17.3932C18.5713 17.5539 18.665 17.772 18.665 17.9993V23.1235C18.6646 23.2363 18.6873 23.348 18.7318 23.4523C18.7763 23.5567 18.8417 23.6515 18.9243 23.7314C19.0069 23.8113 19.105 23.8746 19.213 23.9179C19.321 23.9611 19.4368 23.9834 19.5538 23.9834L25.7766 24C26.0124 24 26.2384 23.9097 26.4051 23.7489C26.5718 23.5882 26.6654 23.3701 26.6654 23.1428V14.3561L16.4257 6.22623C16.3053 6.13264 16.1553 6.08161 16.0007 6.08161C15.8461 6.08161 15.6961 6.13264 15.5757 6.22623ZM31.7539 11.756L27.1099 8.06394V0.642929C27.1099 0.472414 27.0396 0.308882 26.9146 0.18831C26.7896 0.0677371 26.62 0 26.4432 0H23.3324C23.1556 0 22.986 0.0677371 22.861 0.18831C22.736 0.308882 22.6658 0.472414 22.6658 0.642929V4.53318L17.6922 0.586673C17.215 0.207869 16.616 0.000757234 15.9979 0.000757234C15.3798 0.000757234 14.7809 0.207869 14.3036 0.586673L0.241925 11.756C0.174423 11.8098 0.118576 11.8759 0.0775751 11.9505C0.0365738 12.0251 0.0112218 12.1068 0.00296764 12.1909C-0.00528651 12.275 0.00371897 12.3598 0.0294695 12.4406C0.0552201 12.5213 0.097211 12.5963 0.153043 12.6614L1.5696 14.3223C1.62528 14.3876 1.69377 14.4417 1.77114 14.4814C1.84851 14.5212 1.93325 14.5458 2.02051 14.5539C2.10776 14.562 2.19582 14.5534 2.27963 14.5287C2.36345 14.5039 2.44139 14.4635 2.50897 14.4096L15.5757 4.02956C15.6961 3.93597 15.8461 3.88494 16.0007 3.88494C16.1553 3.88494 16.3053 3.93597 16.4257 4.02956L29.493 14.4096C29.5605 14.4635 29.6383 14.504 29.722 14.5288C29.8057 14.5537 29.8936 14.5623 29.9808 14.5544C30.068 14.5464 30.1527 14.522 30.2301 14.4824C30.3075 14.4429 30.376 14.389 30.4318 14.3239L31.8484 12.663C31.9042 12.5976 31.946 12.5221 31.9714 12.4411C31.9969 12.36 32.0054 12.2748 31.9967 12.1906C31.9879 12.1063 31.9619 12.0245 31.9203 11.9499C31.8786 11.8753 31.8221 11.8094 31.7539 11.756Z" fill="white"/>
</svg>
