<svg width="26" height="31" viewBox="0 0 26 31" fill="none" xmlns="http://www.w3.org/2000/svg">
<path d="M10.9636 0C10.7925 2.34585 11.6823 4.17802 12.5665 5.80524C13.4506 7.4305 14.312 8.87299 14.4032 10.5244C14.4717 11.6536 14.1409 12.7762 13.7473 13.9837C13.3537 15.1978 12.903 16.4902 12.8631 17.9588L13.8899 17.9979C13.9184 16.7904 14.312 15.6221 14.7113 14.395C15.1049 13.1679 15.5099 11.882 15.43 10.446C15.3159 8.38999 14.3006 6.77126 13.4335 5.1819C12.5722 3.59319 11.842 2.06127 11.9903 0.0992126L10.9636 0ZM18.6187 0.621384C17.552 1.31065 16.3883 2.1533 15.6468 3.0782C15.1961 3.64149 14.9166 4.21262 14.8539 4.76612C14.7968 5.25761 14.8995 5.7726 15.2703 6.37963C16.4226 6.33394 17.2839 5.47888 17.8771 4.21001C18.3848 3.13042 18.6358 1.78517 18.6187 0.621384ZM6.7025 5.15513C6.63975 5.15579 6.57701 5.15775 6.51997 5.1597C6.19482 5.17145 5.8925 5.20735 5.61299 5.25696C6.21194 6.35352 7.35279 7.59367 8.59061 8.31166C9.33787 8.74245 10.1079 8.99048 10.8039 8.9709C11.4199 8.95785 11.9675 8.74245 12.4581 8.25944C12.3668 7.69811 12.1044 7.22163 11.6652 6.79084C11.1632 6.3013 10.4445 5.89662 9.64019 5.61595C8.76174 5.30918 7.78061 5.16427 6.89074 5.15513C6.828 5.15448 6.76525 5.15448 6.7025 5.15513ZM18.4419 12.3715C18.3221 12.3781 18.208 12.3911 18.0939 12.4042C17.2839 12.5217 16.6051 12.9263 16.1088 13.8532C16.3256 14.1078 16.5709 14.2448 16.8561 14.3101C17.2326 14.395 17.6946 14.3362 18.1795 14.1469C18.9039 13.8728 19.6797 13.3114 20.2786 12.711C19.7082 12.4956 19.1093 12.3715 18.5502 12.3715H18.4419ZM0.444932 19.0814V20.2563H12.0987C12.036 20.7328 11.939 21.4116 11.785 22.1361C11.4998 23.5068 10.9636 25.0146 10.4046 25.5107C9.69153 26.1373 8.7047 26.1764 7.57525 26.0263C7.35849 25.8697 6.74243 25.3997 6.14348 24.7927C5.77841 24.4272 5.43616 24.0094 5.2308 23.6439C5.02545 23.2719 4.98552 23.0043 5.03115 22.8345C5.02545 22.8737 5.02545 22.8345 5.15665 22.7758C5.29355 22.7171 5.51031 22.6648 5.73278 22.6453C6.17771 22.5996 6.61694 22.6453 6.61694 22.6453L6.70821 21.4704C6.70821 21.4704 6.58271 21.4573 6.38877 21.4508C6.18912 21.4443 5.92672 21.4443 5.64721 21.4704C5.36771 21.503 5.07108 21.5552 4.78587 21.6792C4.50636 21.8033 4.18407 22.0317 4.05915 22.469C3.87376 23.1087 4.07284 23.7418 4.36376 24.2705C4.64326 24.7862 5.04256 25.2496 5.44757 25.6543C4.67179 25.5303 3.87718 25.4519 3.12707 25.589C2.92799 25.1386 2.67416 24.6621 2.2606 24.277C1.75178 23.8006 1.02677 23.5068 0.0216761 23.4807L0 24.6556C0.846512 24.6752 1.29943 24.8971 1.61145 25.1908C1.82308 25.3867 1.98166 25.6412 2.12712 25.9349C1.92861 26.0459 1.73523 26.1764 1.54928 26.3331C0.944625 26.8487 0.720448 27.6973 0.541904 28.4348C0.363361 29.1659 0.288635 29.8055 0.288635 29.8055L1.30627 29.9622C1.30627 29.9622 1.37358 29.3943 1.53102 28.7481C1.68732 28.1085 1.9925 27.4166 2.16191 27.273C3.13107 26.4506 4.59193 26.679 6.21764 26.9858C7.83765 27.2926 9.64019 27.6646 11.032 26.4375C11.4884 26.0328 11.8249 25.465 12.093 24.8319C12.3668 25.5172 12.7604 26.1112 13.2339 26.6268C12.6235 26.803 12.093 27.1164 11.631 27.4949C10.8666 28.1281 10.262 28.9113 9.6459 29.551L10.3304 30.4256C10.7867 29.9491 11.2032 29.4596 11.6196 29.0288C11.8534 29.5053 12.1843 29.8839 12.5551 30.158C13.1483 30.6018 13.8214 30.8303 14.4375 31L14.6771 29.8643C14.1066 29.7011 13.5362 29.4922 13.1198 29.1789C12.8061 28.944 12.5722 28.6763 12.4353 28.2912C13.0114 27.867 13.6218 27.6124 14.4546 27.6646C14.8254 27.9061 15.2133 28.1215 15.6125 28.3043C17.1299 28.9896 18.8298 29.2442 20.3186 29.0875C21.2541 28.9831 22.1896 28.3696 23.0224 27.6516C23.3989 27.9975 23.7069 28.4153 23.9179 28.8265C24.2203 29.4139 24.2887 29.9818 24.2203 30.2363L25.19 30.6018C25.4182 29.8382 25.2014 29.0027 24.8021 28.226C24.5568 27.756 24.2374 27.3056 23.8438 26.901C23.8495 26.901 23.8495 26.8944 23.8552 26.8944C24.882 25.9088 25.6406 24.9493 25.6406 24.9493L24.8877 24.153C24.8877 24.153 24.1575 25.0603 23.1935 25.9937C22.2238 26.9271 20.9803 27.8343 20.2273 27.9127C18.9153 28.0563 17.3409 27.8213 15.989 27.2077C14.6428 26.6007 13.5362 25.6282 13.0285 24.3488C12.8802 23.9768 13.0685 22.9129 13.4335 21.9991C13.6047 21.5683 13.7872 21.1832 13.9355 20.8895C14.1523 21.02 14.3975 21.1767 14.6713 21.3594C15.4129 21.8555 16.2628 22.5343 16.6165 23.0238C16.8789 23.3828 17.2212 24.2379 17.455 24.9624C17.6889 25.6934 17.8372 26.3005 17.8372 26.3005L18.8298 25.9872C18.8298 25.9872 18.67 25.3344 18.419 24.5577C18.2593 24.0421 18.0654 23.4807 17.8201 22.9781C18.054 22.939 18.362 22.939 18.7157 23.0173C19.4116 23.174 20.2444 23.5721 20.9403 24.1596L21.545 23.2066C20.7179 22.5212 19.7767 22.0578 18.9096 21.8685C18.5845 21.7967 18.265 21.751 17.957 21.7641C17.6661 21.7706 17.3923 21.8294 17.147 21.9469C16.6051 21.3398 15.8578 20.7981 15.1961 20.3477C15.1505 20.3151 15.1049 20.289 15.0592 20.2563H26V19.0814H0.444932Z" fill="#0D2725"/>
</svg>
