<svg width="15" height="14" viewBox="0 0 15 14" fill="none" xmlns="http://www.w3.org/2000/svg">
<path d="M7.5 0C3.35685 0 0 3.13306 0 7C0 10.8669 3.35685 14 7.5 14C11.6431 14 15 10.8669 15 7C15 3.13306 11.6431 0 7.5 0ZM11.8548 7.79032C11.8548 7.97661 11.6915 8.12903 11.4919 8.12903H8.70968V10.7258C8.70968 10.9121 8.54637 11.0645 8.34677 11.0645H6.65323C6.45363 11.0645 6.29032 10.9121 6.29032 10.7258V8.12903H3.50806C3.30847 8.12903 3.14516 7.97661 3.14516 7.79032V6.20968C3.14516 6.02339 3.30847 5.87097 3.50806 5.87097H6.29032V3.27419C6.29032 3.0879 6.45363 2.93548 6.65323 2.93548H8.34677C8.54637 2.93548 8.70968 3.0879 8.70968 3.27419V5.87097H11.4919C11.6915 5.87097 11.8548 6.02339 11.8548 6.20968V7.79032Z" fill="#214C49" fill-opacity="0.61"/>
</svg>
