<svg width="96" height="91" viewBox="0 0 96 91" fill="none" xmlns="http://www.w3.org/2000/svg">
<path d="M47.6059 0.000968785C33.0528 0.0707439 18.7183 6.4468 9.38677 18.4481C-4.72063 36.5916 -2.55796 61.3742 13.397 77.0732L5.87396 86.748L36.4242 82.4013L31.8552 53.3343L23.1404 64.5422C14.2352 54.089 13.4992 38.853 22.3 27.5345C28.4973 19.5639 38.0303 15.3278 47.7063 15.28C51.0411 15.2633 54.3577 15.7477 57.5338 16.7153L56.1271 7.76753C51.3993 6.85101 46.5328 6.786 41.7799 7.57589C29.8135 8.98331 18.7502 15.2488 11.8484 25.109C19.0506 12.4438 32.8134 4.74971 47.4135 4.39872C50.7824 4.31834 54.1489 4.63077 57.438 5.32906L67.258 3.93202C60.967 1.25903 54.2638 -0.0315162 47.6063 0.000584194L47.6059 0.000968785ZM90.623 4.24033L60.0734 8.58638L64.642 37.6536L72.9505 26.9686C81.4767 37.4041 82.0602 52.3506 73.3923 63.4982C65.2669 73.9485 51.408 77.9761 39.0097 74.5634L40.3273 82.9438C46.1046 84.0017 52.0588 83.7999 57.7425 82.3536C65.3079 81.2086 72.559 78.1152 78.5833 73.1795C68.6445 83.6842 53.8121 88.0791 39.8463 85.5468L28.5733 87.1506C48.5798 95.5506 72.6959 89.9897 86.2534 72.554C100.219 54.5922 98.2416 30.1232 82.7214 14.4023L90.6234 4.24053L90.623 4.24033Z" fill="white"/>
</svg>
