<svg width="45" height="35" viewBox="0 0 45 35" fill="none" xmlns="http://www.w3.org/2000/svg">
<path d="M45 8.75V31.25C45 33.3203 43.1104 35 40.7812 35H4.21875C1.88965 35 0 33.3203 0 31.25V8.75C0 6.67969 1.88965 5 4.21875 5H11.9531L13.0342 2.42969C13.6494 0.96875 15.2227 0 16.9805 0H28.0107C29.7686 0 31.3418 0.96875 31.957 2.42969L33.0469 5H40.7812C43.1104 5 45 6.67969 45 8.75ZM33.0469 20C33.0469 14.8281 28.3184 10.625 22.5 10.625C16.6816 10.625 11.9531 14.8281 11.9531 20C11.9531 25.1719 16.6816 29.375 22.5 29.375C28.3184 29.375 33.0469 25.1719 33.0469 20ZM30.2344 20C30.2344 23.7891 26.7627 26.875 22.5 26.875C18.2373 26.875 14.7656 23.7891 14.7656 20C14.7656 16.2109 18.2373 13.125 22.5 13.125C26.7627 13.125 30.2344 16.2109 30.2344 20Z" fill="#F3D2D2"/>
</svg>
