<svg width="8" height="10" viewBox="0 0 8 10" fill="none" xmlns="http://www.w3.org/2000/svg">
<path d="M7.8696 1.56745L7.22656 2.52579C7.16101 2.6235 7.0186 2.66999 6.90802 2.62978L4.29649 1.68014C4.18591 1.63993 4.14951 1.52842 4.21507 1.43072L4.8581 0.472366C5.11895 0.0836219 5.68858 -0.102322 6.13042 0.0570504L7.54441 0.571224C7.98624 0.730597 8.13184 1.17662 7.8696 1.56745ZM3.6627 2.25394L-0.000243936 7.71299L0.184409 9.6253C0.208612 9.88366 0.544575 10.0045 0.838468 9.86314L3.01313 8.80746L6.67607 3.34841C6.74163 3.2507 6.70523 3.13919 6.59465 3.09898L3.98312 2.14935C3.87066 2.10975 3.72826 2.15623 3.6627 2.25394ZM1.81265 6.75593C1.68325 6.70887 1.6411 6.57976 1.71782 6.46542L3.86592 3.264C3.94264 3.14966 4.10754 3.09583 4.23694 3.14289C4.36634 3.18994 4.40848 3.31905 4.33177 3.43339L2.18366 6.63482C2.10694 6.74915 1.94205 6.80298 1.81265 6.75593ZM1.53898 8.21064L2.43841 7.91704L2.61226 8.44963L1.45777 9.00995L0.726075 8.74388L0.628905 7.72842L1.3091 7.50639L1.53898 8.21064Z" fill="#E19D9D"/>
</svg>
