<svg width="25" height="25" viewBox="0 0 25 25" fill="none" xmlns="http://www.w3.org/2000/svg">
<path d="M6.66667 10.9375H11.6667V25H6.66667V10.9375ZM8.33333 23.4375H10V12.5H8.33333V23.4375ZM13.3333 14.0625H18.3333V25H13.3333V14.0625ZM15 23.4375H16.6667V15.625H15V23.4375ZM0 17.1875H5V25H0V17.1875ZM1.66667 23.4375H3.33333V18.75H1.66667V23.4375ZM20 7.8125H25V25H20V7.8125ZM21.6667 23.4375H23.3333V9.375H21.6667V23.4375ZM18.0859 7.58057C18.2509 7.91423 18.3333 8.25195 18.3333 8.59375C18.3333 8.91927 18.2682 9.22445 18.138 9.50928C18.0078 9.79411 17.8299 10.0423 17.6042 10.2539C17.3785 10.4655 17.1137 10.6323 16.8099 10.7544C16.5061 10.8765 16.1806 10.9375 15.8333 10.9375C15.4861 10.9375 15.1606 10.8765 14.8568 10.7544C14.553 10.6323 14.2882 10.4655 14.0625 10.2539C13.8368 10.0423 13.6589 9.79411 13.5286 9.50928C13.3984 9.22445 13.3333 8.91927 13.3333 8.59375V8.44727C13.3333 8.39844 13.3377 8.34961 13.3464 8.30078L10.8984 7.15332C10.6727 7.36491 10.408 7.52767 10.1042 7.6416C9.80035 7.75553 9.48785 7.8125 9.16667 7.8125C8.80208 7.8125 8.44184 7.73519 8.08594 7.58057L4.7526 10.7056C4.91753 11.0392 5 11.377 5 11.7188C5 12.0443 4.9349 12.3494 4.80469 12.6343C4.67448 12.9191 4.49653 13.1673 4.27083 13.3789C4.04514 13.5905 3.78038 13.7573 3.47656 13.8794C3.17274 14.0015 2.84722 14.0625 2.5 14.0625C2.15278 14.0625 1.82726 14.0015 1.52344 13.8794C1.21962 13.7573 0.954861 13.5905 0.729167 13.3789C0.503472 13.1673 0.325521 12.9191 0.195312 12.6343C0.0651042 12.3494 0 12.0443 0 11.7188C0 11.3932 0.0651042 11.0881 0.195312 10.8032C0.325521 10.5184 0.503472 10.2702 0.729167 10.0586C0.954861 9.847 1.21962 9.68018 1.52344 9.55811C1.82726 9.43604 2.15278 9.375 2.5 9.375C2.86458 9.375 3.22483 9.45231 3.58073 9.60693L6.91406 6.48193C6.74913 6.14827 6.66667 5.81055 6.66667 5.46875C6.66667 5.14323 6.73177 4.83805 6.86198 4.55322C6.99219 4.26839 7.17014 4.02018 7.39583 3.80859C7.62153 3.59701 7.88628 3.43018 8.1901 3.30811C8.49392 3.18604 8.81944 3.125 9.16667 3.125C9.51389 3.125 9.83941 3.18604 10.1432 3.30811C10.447 3.43018 10.7118 3.59701 10.9375 3.80859C11.1632 4.02018 11.3411 4.26839 11.4714 4.55322C11.6016 4.83805 11.6667 5.14323 11.6667 5.46875V5.61523C11.6667 5.66406 11.6623 5.71289 11.6536 5.76172L14.1016 6.90918C14.3273 6.69759 14.592 6.53483 14.8958 6.4209C15.1997 6.30697 15.5122 6.25 15.8333 6.25C16.1979 6.25 16.5582 6.32731 16.9141 6.48193L20.2474 3.35693C20.0825 3.02327 20 2.68555 20 2.34375C20 2.01823 20.0651 1.71305 20.1953 1.42822C20.3255 1.14339 20.5035 0.895182 20.7292 0.683594C20.9549 0.472005 21.2196 0.305176 21.5234 0.183105C21.8273 0.0610352 22.1528 0 22.5 0C22.8472 0 23.1727 0.0610352 23.4766 0.183105C23.7804 0.305176 24.0451 0.472005 24.2708 0.683594C24.4965 0.895182 24.6745 1.14339 24.8047 1.42822C24.9349 1.71305 25 2.01823 25 2.34375C25 2.66927 24.9349 2.97445 24.8047 3.25928C24.6745 3.54411 24.4965 3.79232 24.2708 4.00391C24.0451 4.21549 23.7804 4.38232 23.4766 4.50439C23.1727 4.62646 22.8472 4.6875 22.5 4.6875C22.1354 4.6875 21.7752 4.61019 21.4193 4.45557L18.0859 7.58057ZM2.5 12.5C2.72569 12.5 2.92101 12.4227 3.08594 12.2681C3.25087 12.1134 3.33333 11.9303 3.33333 11.7188C3.33333 11.5072 3.25087 11.3241 3.08594 11.1694C2.92101 11.0148 2.72569 10.9375 2.5 10.9375C2.27431 10.9375 2.07899 11.0148 1.91406 11.1694C1.74913 11.3241 1.66667 11.5072 1.66667 11.7188C1.66667 11.9303 1.74913 12.1134 1.91406 12.2681C2.07899 12.4227 2.27431 12.5 2.5 12.5ZM22.5 1.5625C22.2743 1.5625 22.079 1.63981 21.9141 1.79443C21.7491 1.94906 21.6667 2.13216 21.6667 2.34375C21.6667 2.55534 21.7491 2.73844 21.9141 2.89307C22.079 3.04769 22.2743 3.125 22.5 3.125C22.7257 3.125 22.921 3.04769 23.0859 2.89307C23.2509 2.73844 23.3333 2.55534 23.3333 2.34375C23.3333 2.13216 23.2509 1.94906 23.0859 1.79443C22.921 1.63981 22.7257 1.5625 22.5 1.5625ZM9.16667 6.25C9.39236 6.25 9.58767 6.17269 9.7526 6.01807C9.91753 5.86344 10 5.68034 10 5.46875C10 5.25716 9.91753 5.07406 9.7526 4.91943C9.58767 4.76481 9.39236 4.6875 9.16667 4.6875C8.94097 4.6875 8.74566 4.76481 8.58073 4.91943C8.4158 5.07406 8.33333 5.25716 8.33333 5.46875C8.33333 5.68034 8.4158 5.86344 8.58073 6.01807C8.74566 6.17269 8.94097 6.25 9.16667 6.25ZM15.8333 9.375C16.059 9.375 16.2543 9.29769 16.4193 9.14307C16.5842 8.98844 16.6667 8.80534 16.6667 8.59375C16.6667 8.38216 16.5842 8.19906 16.4193 8.04443C16.2543 7.88981 16.059 7.8125 15.8333 7.8125C15.6076 7.8125 15.4123 7.88981 15.2474 8.04443C15.0825 8.19906 15 8.38216 15 8.59375C15 8.80534 15.0825 8.98844 15.2474 9.14307C15.4123 9.29769 15.6076 9.375 15.8333 9.375Z" fill="#6B5E5E"/>
</svg>
