<svg width="18" height="17" viewBox="0 0 18 17" fill="none" xmlns="http://www.w3.org/2000/svg">
<g clip-path="url(#clip0_302_841)">
<path d="M8.25 2.83334H3C2.60218 2.83334 2.22064 2.9826 1.93934 3.24828C1.65804 3.51395 1.5 3.87429 1.5 4.25001V14.1667C1.5 14.5424 1.65804 14.9027 1.93934 15.1684C2.22064 15.4341 2.60218 15.5833 3 15.5833H13.5C13.8978 15.5833 14.2794 15.4341 14.5607 15.1684C14.842 14.9027 15 14.5424 15 14.1667V9.20834" stroke="#0D2725" stroke-opacity="0.83" stroke-width="2" stroke-linecap="round" stroke-linejoin="round"/>
<path d="M13.875 1.77084C14.1734 1.48904 14.578 1.33073 15 1.33073C15.422 1.33073 15.8266 1.48904 16.125 1.77084C16.4234 2.05263 16.591 2.43482 16.591 2.83334C16.591 3.23185 16.4234 3.61404 16.125 3.89584L9 10.625L6 11.3333L6.75 8.5L13.875 1.77084Z" stroke="#0D2725" stroke-opacity="0.83" stroke-width="2" stroke-linecap="round" stroke-linejoin="round"/>
</g>
<defs>
<clipPath id="clip0_302_841">
<rect width="18" height="17" fill="white"/>
</clipPath>
</defs>
</svg>
