<svg width="35" height="29" viewBox="0 0 35 29" fill="none" xmlns="http://www.w3.org/2000/svg">
<path d="M35 7.25V25.8929C35 27.6083 33.5303 29 31.7188 29H3.28125C1.46973 29 0 27.6083 0 25.8929V7.25C0 5.5346 1.46973 4.14286 3.28125 4.14286H9.29688L10.1377 2.01317C10.6162 0.802678 11.8398 0 13.207 0H21.7861C23.1533 0 24.377 0.802678 24.8555 2.01317L25.7031 4.14286H31.7188C33.5303 4.14286 35 5.5346 35 7.25ZM25.7031 16.5714C25.7031 12.2862 22.0254 8.80357 17.5 8.80357C12.9746 8.80357 9.29688 12.2862 9.29688 16.5714C9.29688 20.8567 12.9746 24.3393 17.5 24.3393C22.0254 24.3393 25.7031 20.8567 25.7031 16.5714ZM23.5156 16.5714C23.5156 19.7109 20.8154 22.2679 17.5 22.2679C14.1846 22.2679 11.4844 19.7109 11.4844 16.5714C11.4844 13.4319 14.1846 10.875 17.5 10.875C20.8154 10.875 23.5156 13.4319 23.5156 16.5714Z" fill="#F3E7E7"/>
</svg>
