<svg width="31" height="28" viewBox="0 0 31 28" fill="none" xmlns="http://www.w3.org/2000/svg">
<path d="M24.7225 15.0967C24.7742 14.7467 24.8 14.385 24.8 14C24.8 13.6267 24.7742 13.2533 24.7096 12.9033L27.3317 11.06C27.4447 10.9759 27.5219 10.859 27.5501 10.7292C27.5784 10.5994 27.556 10.4648 27.4867 10.3483L25.0067 6.475C24.9336 6.35782 24.8171 6.26777 24.6776 6.22079C24.5381 6.17381 24.3847 6.17294 24.2446 6.21833L21.1575 7.33833C20.5117 6.895 19.8271 6.52167 19.065 6.24167L18.6 3.27833C18.5771 3.14478 18.502 3.02307 18.3882 2.9353C18.2745 2.84753 18.1296 2.79953 17.98 2.8H13.02C12.71 2.8 12.4646 2.99833 12.4129 3.27833L11.9479 6.24167C11.1858 6.52167 10.4883 6.90667 9.85542 7.33833L6.76833 6.21833C6.48417 6.125 6.16125 6.21833 6.00625 6.475L3.53917 10.3483C3.38417 10.5933 3.43583 10.8967 3.69417 11.06L6.31625 12.9033C6.25167 13.2533 6.2 13.6383 6.2 14C6.2 14.3617 6.22583 14.7467 6.29042 15.0967L3.66833 16.94C3.55534 17.0241 3.47814 17.141 3.44988 17.2708C3.42161 17.4006 3.44404 17.5352 3.51333 17.6517L5.99333 21.525C6.14833 21.7817 6.47125 21.8633 6.75542 21.7817L9.8425 20.6617C10.4883 21.105 11.1729 21.4783 11.935 21.7583L12.4 24.7217C12.4646 25.0017 12.71 25.2 13.02 25.2H17.98C18.29 25.2 18.5483 25.0017 18.5871 24.7217L19.0521 21.7583C19.8142 21.4783 20.5117 21.105 21.1446 20.6617L24.2317 21.7817C24.5158 21.875 24.8387 21.7817 24.9937 21.525L27.4737 17.6517C27.6287 17.395 27.5642 17.1033 27.3187 16.94L24.7225 15.0967ZM15.5 18.2C12.9425 18.2 10.85 16.31 10.85 14C10.85 11.69 12.9425 9.8 15.5 9.8C18.0575 9.8 20.15 11.69 20.15 14C20.15 16.31 18.0575 18.2 15.5 18.2Z" fill="#FFE9E9"/>
</svg>
