<svg width="31" height="32" viewBox="0 0 31 32" fill="none" xmlns="http://www.w3.org/2000/svg">
<path d="M16.793 8.01334C20.8863 8.01334 23.2074 10.8093 23.5458 14.1867H23.6492C24.912 14.1853 26.1237 14.7017 27.0177 15.6223C27.9118 16.5429 28.415 17.7924 28.4167 19.096C28.416 19.7417 28.2921 20.3809 28.0521 20.9772C27.812 21.5734 27.4606 22.115 27.0177 22.5711C26.5749 23.0271 26.0493 23.3886 25.4711 23.6349C24.8929 23.8812 24.2734 24.0075 23.6479 24.0067L22.8315 24L20.8398 27.5067C20.7169 27.7259 20.5181 27.8889 20.2834 27.9627C20.0487 28.0365 19.7955 28.0156 19.5752 27.9042C19.3548 27.7928 19.1836 27.5993 19.0961 27.3627C19.0086 27.126 19.0113 26.864 19.1038 26.6293L19.1619 26.508L20.5944 24H17.8354L15.8423 27.5067C15.7195 27.7259 15.5206 27.8889 15.2859 27.9627C15.0512 28.0365 14.7981 28.0156 14.5777 27.9042C14.3573 27.7928 14.1861 27.5993 14.0986 27.3627C14.0111 27.126 14.0139 26.864 14.1063 26.6293L14.1644 26.508L15.5982 24H12.8379L10.8462 27.5067C10.7233 27.7259 10.5245 27.8889 10.2897 27.9627C10.055 28.0365 9.80192 28.0156 9.58155 27.9042C9.36118 27.7928 9.18996 27.5993 9.10246 27.3627C9.01497 27.126 9.01771 26.864 9.11015 26.6293L9.16828 26.508L10.6007 24H9.81669C7.18298 24 5.16927 21.808 5.16927 19.096C5.17012 18.4504 5.29414 17.8113 5.53426 17.2152C5.77437 16.6191 6.12588 16.0777 6.56871 15.6218C7.01154 15.1659 7.53701 14.8046 8.11513 14.5583C8.69326 14.3121 9.3127 14.1858 9.93811 14.1867H10.0414C10.3812 10.7867 12.701 8.01334 16.7917 8.01334H16.793ZM8.50952 2.66934C9.53934 2.72649 10.5414 3.03444 11.4339 3.56801C12.7434 4.34573 13.7513 5.56801 14.2859 7.02667C11.7219 7.77734 9.88773 9.69601 9.12694 12.288L9.03652 12.616L8.9629 12.9333L8.69682 12.984C7.2418 13.3022 5.95195 14.164 5.07498 15.404L4.87477 15.292C4.03088 14.7901 3.30626 14.1 2.75386 13.272C2.66959 13.1457 2.61459 13.0012 2.59309 12.8495C2.57159 12.6977 2.58417 12.543 2.62987 12.3971C2.67556 12.2512 2.75315 12.1181 2.85662 12.0081C2.96009 11.8981 3.08668 11.8141 3.22661 11.7627C5.34752 10.9787 6.49065 10.096 7.14423 8.80801C7.85852 7.40134 7.99027 5.90934 7.51623 3.90534C7.48005 3.75352 7.47886 3.59505 7.51276 3.44267C7.54665 3.29029 7.61469 3.14823 7.71141 3.02791C7.80812 2.90758 7.93083 2.81235 8.06966 2.74984C8.20849 2.68734 8.35959 2.65931 8.51082 2.66801L8.50952 2.66934Z" fill="#C4E48E"/>
</svg>
