<svg width="298" height="135" viewBox="0 0 298 135" fill="none" xmlns="http://www.w3.org/2000/svg">
<g clip-path="url(#clip0_302_1247)">
<path d="M292.024 127.298C208.563 92.5423 133.701 94.3897 85.5973 102.058C33.4691 110.369 0.657915 127.117 0.33267 127.286L0 126.679C0.326108 126.511 33.2188 109.717 85.4532 101.386C116.148 96.4918 147.363 95.4296 178.336 98.225C217.031 101.72 255.375 111.289 292.303 126.667L292.024 127.298Z" fill="#116B35"/>
<path d="M99.367 63.4616L79.6045 48.27C78.7692 47.624 78.229 46.6851 78.1006 45.6558C77.9721 44.6266 78.2657 43.5897 78.9179 42.7687C79.2553 42.344 79.6783 41.9904 80.1611 41.7296C80.6438 41.4688 81.1763 41.3061 81.7259 41.2515C82.2755 41.1969 82.8309 41.2516 83.358 41.4122C83.8852 41.5727 84.3731 41.8358 84.7921 42.1854L104.822 58.5766L117.426 68.0385C118.061 67.6913 118.791 67.5423 119.517 67.6119C120.242 67.6815 120.928 67.9662 121.481 68.4273C122.034 68.8885 122.428 69.5037 122.608 70.1895C122.788 70.8753 122.747 71.5983 122.489 72.2604C122.231 72.9224 121.77 73.4914 121.167 73.8901C120.565 74.2887 119.851 74.4976 119.122 74.4884C118.393 74.4793 117.684 74.2525 117.092 73.8388C116.501 73.4252 116.055 72.8448 115.815 72.1765L99.367 63.4616Z" fill="#FFB6B6"/>
<path d="M82.1936 53.1284C81.9333 53.163 81.6684 53.1138 81.4397 52.9882C81.2111 52.8626 81.0312 52.6677 80.9277 52.4332C80.7944 52.1463 80.5721 51.907 80.2918 51.7487C80.2373 51.7187 80.1808 51.6921 80.1227 51.6693C79.769 51.5401 79.4527 51.3299 79.2007 51.0566C78.9486 50.7832 78.7683 50.4549 78.675 50.0995C78.3851 48.9253 77.4554 47.7862 76.5213 46.9077C75.499 45.9465 74.4078 45.0246 73.6523 43.8537C72.5626 42.1647 72.2568 39.7942 74.3594 38.3851C75.2632 37.7992 76.3475 37.5337 77.4295 37.6333C79.6945 37.8122 81.5676 39.1539 83.347 40.4541L82.9016 39.6053C84.8195 41.0583 87.02 42.1203 89.371 42.7276C88.9643 43.0866 89.3169 43.8046 89.839 43.9716C90.3611 44.1385 90.924 43.9626 91.4618 43.8518C92.1396 43.7121 92.9777 43.724 93.2451 44.5097C93.3036 44.6993 93.3211 44.8987 93.2964 45.0953C93.2718 45.2918 93.2055 45.4813 93.1018 45.6518C91.2131 48.9141 88.6498 51.762 85.5729 54.0165C84.8892 54.5168 84.0956 55.0092 83.2453 54.9113C82.3951 54.8134 81.6719 53.7874 82.1936 53.1284Z" fill="#116B35"/>
<path d="M66.5269 74.3341L64.6821 65.7023L84.0708 59.7737L81.4598 79.6432L66.5269 74.3341Z" fill="#FFB6B6"/>
<path d="M83.5332 66.6174L64.8477 74.4402C64.8477 74.4402 62.4459 74.3376 62.4459 72.9289C62.4459 71.5203 63.7884 71.2255 62.0288 70.1403C60.2692 69.0552 59.5436 69.7595 59.9064 67.9987C60.2692 66.2378 60.6319 65.6555 60.6319 65.2424C60.6319 64.8292 60.2692 63.0684 60.2692 61.3076C60.2692 60.4539 63.0943 58.904 62.3915 53.9015C61.5352 47.8066 61.8356 38.4794 67.8875 36.6562L72.2409 29.2608H80.5392L83.1243 36.6562L86.1886 40.5544C86.1886 40.5544 92.2331 47.9743 90.4192 51.8481C88.6053 55.7219 83.5332 66.6174 83.5332 66.6174Z" fill="#2F2E41"/>
<path d="M120.456 78.3468C120.423 72.0601 119.35 65.8192 117.278 59.8629C116.683 58.1539 116.007 56.4749 115.25 54.8257C114.972 54.2198 114.018 54.6713 114.296 55.2776C116.87 60.8989 118.499 66.8844 119.121 73.0063C119.299 74.7559 119.391 76.5103 119.398 78.2696C119.401 78.9281 120.459 79.011 120.456 78.3468Z" fill="#8C89AE"/>
<path d="M115.14 54.0269L115.74 55.7539C110.644 55.2607 110.032 49.0325 106.677 45.2788C103.319 41.5293 97.2544 40.2917 97.4643 35.3263C97.4958 34.608 97.6125 33.8041 98.1932 33.3557C98.9196 32.8012 99.9811 33.0743 100.834 33.4181C101.735 33.7839 102.609 34.209 103.45 34.6903C103.715 35.3772 103.98 36.0643 104.245 36.7515C104.334 36.9872 104.49 37.1935 104.695 37.3467C104.9 37.4999 105.146 37.5937 105.404 37.6173C105.661 37.6409 105.92 37.5933 106.151 37.48C106.382 37.3667 106.575 37.1924 106.709 36.9771L106.722 36.9552C116.872 36.9405 118.035 45.0331 115.14 54.0269Z" fill="#116B35"/>
<path d="M115.409 55.9823C112.915 56.9402 110.81 54.8995 108.32 53.9362C105.826 52.9692 102.972 53.0916 101.839 50.7293C101.737 50.5679 101.672 50.3876 101.646 50.2001C101.621 50.0126 101.637 49.822 101.692 49.6407C101.892 49.2111 102.455 49.0937 102.937 49.0531C103.609 49.0013 104.284 49.0079 104.954 49.0728C105.116 49.3567 105.275 49.6438 105.437 49.9311C105.712 50.416 105.983 50.9007 106.258 51.3856C106.754 50.8455 107.162 50.234 107.466 49.5729C112.058 47.7096 114.06 51.0217 114.701 55.3177L115.409 55.9823Z" fill="#116B35"/>
<path d="M114.718 55.9318C117.036 57.2408 119.431 55.5284 122.042 54.9372C124.656 54.3428 127.46 54.8779 128.944 52.7065C129.069 52.5617 129.162 52.3929 129.216 52.2112C129.269 52.0294 129.283 51.8387 129.256 51.6514C129.125 51.1976 128.587 50.9999 128.116 50.8899C127.46 50.7412 126.792 50.6498 126.119 50.6168C125.914 50.8739 125.713 51.1347 125.509 51.3953C125.163 51.8349 124.82 52.2748 124.474 52.7144C124.066 52.1083 123.757 51.4446 123.558 50.7468C119.304 48.2381 116.815 51.2227 115.52 55.3774L114.718 55.9318Z" fill="#116B35"/>
<path d="M114.763 56.022C117.275 55.1097 117.427 52.2255 118.609 49.89C119.791 47.5496 121.993 45.7824 121.202 43.2923C121.166 43.1064 121.09 42.93 120.979 42.7745C120.869 42.619 120.725 42.4878 120.559 42.3894C120.114 42.2009 119.615 42.4799 119.23 42.7635C118.696 43.1622 118.2 43.6064 117.747 44.0909C117.823 44.4073 117.903 44.7236 117.981 45.0423C118.112 45.5808 118.246 46.1169 118.377 46.6554C117.636 46.5779 116.911 46.3895 116.229 46.0968C111.534 47.7037 112.337 51.4639 114.829 55.0683L114.763 56.022Z" fill="#116B35"/>
<path d="M72.9233 21.8072C79.0228 26.3113 85.8154 29.8959 87.0958 34.8527C87.0958 34.8527 86.3289 27.0646 89.9065 28.5407C95.9177 31.0211 93.8838 17.532 92.1981 15.3263C89.3886 11.65 79.9148 9.56116 79.9148 9.56116L73.1941 13.1425L72.9233 21.8072Z" fill="#2F2E41"/>
<path d="M83.5443 27.2729C89.3621 27.2729 94.0784 22.6947 94.0784 17.0472C94.0784 11.3997 89.3621 6.82143 83.5443 6.82143C77.7265 6.82143 73.0103 11.3997 73.0103 17.0472C73.0103 22.6947 77.7265 27.2729 83.5443 27.2729Z" fill="#FFB6B6"/>
<path d="M79.7505 13.1346L79.3452 14.8629L86.4313 16.4289C86.4376 16.0793 86.5182 15.7348 86.6682 15.417C86.8181 15.0991 87.0342 14.8148 87.3027 14.5818C87.1498 15.2595 87.1673 15.9629 87.3535 16.6327C91.1751 18.7143 90.9555 19.4518 94.0441 18.921C94.4626 19.0134 94.9017 18.9408 95.265 18.7189C95.6282 18.4971 95.8858 18.1443 95.9811 17.7381C97.2238 12.4391 97.6321 7.02324 92.2002 5.70795C90.8798 5.38748 89.5068 5.32612 88.1617 5.52748C86.8167 5.72884 85.5265 6.18887 84.367 6.88058C83.2074 7.5723 82.2018 8.48177 81.4091 9.55569C80.6164 10.6296 80.0525 11.8463 79.7505 13.1346Z" fill="#2F2E41"/>
<path d="M81.4838 20.0301C81.8308 18.554 82.5109 17.171 83.4751 15.981C84.4394 14.7909 85.6637 13.8235 87.0598 13.1484C88.4558 12.4733 89.9889 12.1075 91.5483 12.0772C93.1076 12.047 94.6545 12.3531 96.0773 12.9735C95.5844 11.5615 94.587 10.3676 93.2657 9.60783L85.2895 6.24629C81.3551 5.37686 75.1271 2.90912 72.2854 5.2723C69.6672 7.4432 70.9415 11.6927 68.5305 14.0727C65.8883 16.6809 65.6639 19.7649 66.4132 21.5387C67.2801 23.5908 69.0143 26.3905 71.1785 26.9965C71.2912 26.2743 71.6623 25.6137 72.2267 25.1307C72.0707 25.8189 72.0572 26.5305 72.1868 27.2239L85.2895 37.3681C84.0657 36.3349 83.0232 33.6727 82.3051 30.6742C81.88 28.8993 79.344 28.2764 81.4008 25.2641C83.4575 22.2518 81.2046 21.221 81.4838 20.0301Z" fill="#2F2E41"/>
<path d="M70.9894 8.71543L71.0262 8.78679C71.0711 8.88194 71.116 8.97709 71.1528 9.0762L71.1569 9.08017C71.357 9.15153 71.5816 9.03656 71.8022 8.85419C71.7678 9.28293 71.7433 9.69781 71.7249 10.1044L78.7004 7.45467C77.4873 7.65796 77.3079 3.46818 76.4378 4.27103C76.3887 4.31464 76.3438 4.35826 76.2989 4.40187C76.4072 4.14924 76.4814 3.88404 76.5194 3.61291C76.5566 3.27259 76.529 2.92853 76.4378 2.59796C76.4362 2.59639 76.435 2.59451 76.4343 2.59245C76.4336 2.59039 76.4334 2.58821 76.4337 2.58605C76.3468 2.28713 76.2117 2.00345 76.0334 1.74554C75.7764 1.37046 75.4512 1.04399 75.0736 0.782133C74.592 0.424819 74.0304 0.182632 73.4343 0.075182C72.8383 -0.0322684 72.2246 -0.00196351 71.6429 0.163644C70.3105 0.652948 69.2091 1.59942 68.5471 2.82392C67.9957 3.78736 67.575 4.86969 67.6608 5.96791C67.6858 6.25901 67.7503 6.54563 67.8528 6.8203C67.9801 7.20606 68.1975 7.55808 68.488 7.84896C68.7784 8.13984 69.1341 8.36173 69.5273 8.49737C69.6253 8.52907 69.7397 8.56476 69.8622 8.60837C69.9275 8.09249 69.9316 7.57102 69.8744 7.05422C70.3286 7.55148 70.7043 8.11129 70.9894 8.71543Z" fill="#2F2E41"/>
<path d="M77.7446 7.18509C77.7356 7.40623 77.7083 7.6263 77.663 7.8432C77.6595 7.87129 77.654 7.89912 77.6466 7.92647C77.3607 9.15948 75.8128 6.59435 74.6161 7.45468C73.6931 8.11677 73.1826 8.25554 72.1656 8.64407C72.1289 8.54496 71.8021 8.73922 71.7572 8.64407C71.7449 8.62028 71.7695 8.27139 71.7572 8.2476C72.7497 7.86301 72.913 7.69255 73.7993 7.05821C74.9225 6.25338 74.7632 7.00667 75.0246 5.86881C75.3268 4.55651 77.1075 5.11948 76.1926 4.49703L76.2988 4.35431C76.9485 4.78981 77.4277 5.42542 77.6589 6.15822C77.6586 6.16038 77.6588 6.16256 77.6595 6.16462C77.6602 6.16668 77.6614 6.16856 77.663 6.17013C77.7313 6.50413 77.7587 6.84483 77.7446 7.18509Z" fill="#116B35"/>
<path d="M234.361 126.933H226.738L223.271 109.495C223.219 109.23 223.227 108.957 223.296 108.696C223.365 108.434 223.492 108.19 223.669 107.982C223.846 107.774 224.068 107.606 224.32 107.491C224.571 107.376 224.846 107.317 225.124 107.317H235.975C236.253 107.317 236.527 107.376 236.779 107.491C237.03 107.606 237.253 107.774 237.43 107.982C237.607 108.19 237.734 108.434 237.803 108.696C237.872 108.957 237.88 109.23 237.827 109.495L234.361 126.933Z" fill="#116B35"/>
<path d="M188.363 127.048C188.313 127.07 180.691 127.07 180.741 127.092C178.002 122.688 176.94 118.965 176.589 116.241C176.511 115.617 176.571 114.985 176.764 114.385C176.957 113.785 177.278 113.232 177.707 112.761C178.136 112.29 178.662 111.913 179.252 111.654C179.841 111.395 180.481 111.26 181.128 111.258L188.027 111.219C188.631 111.215 189.229 111.326 189.788 111.547C190.347 111.767 190.856 112.093 191.286 112.504C191.715 112.916 192.057 113.405 192.291 113.945C192.526 114.485 192.648 115.064 192.652 115.65C192.668 118.96 191.905 123.499 188.363 127.048Z" fill="#116B35"/>
<path d="M184.424 111.783C184.797 108.843 184.647 105.863 183.979 102.973C183.868 102.488 183.1 102.693 183.212 103.178C183.858 106.002 183.999 108.913 183.628 111.783C183.565 112.276 184.362 112.271 184.424 111.783Z" fill="#116B35"/>
<path d="M185.49 111.976C185.669 109.524 186.301 107.124 187.354 104.889C187.566 104.44 186.88 104.047 186.667 104.499C185.552 106.856 184.884 109.389 184.694 111.976C184.658 112.472 185.454 112.47 185.49 111.976Z" fill="#116B35"/>
<path d="M183.263 111.897C183.032 109.152 182.222 106.482 180.884 104.054C180.642 103.615 179.955 104.005 180.197 104.444C181.47 106.751 182.243 109.288 182.467 111.897C182.509 112.389 183.305 112.393 183.263 111.897Z" fill="#116B35"/>
<path d="M180.6 103.797C180.146 103.636 180.095 102.964 179.989 102.578C179.917 102.281 179.8 101.996 179.642 101.733C179.462 101.47 179.255 101.224 179.026 101C178.839 100.833 178.686 100.632 178.578 100.409C178.545 100.324 178.535 100.231 178.551 100.141C178.566 100.102 178.577 100.062 178.585 100.021L178.59 100.008C178.615 99.9606 178.578 99.9675 178.477 100.028C178.477 100.034 178.669 100.138 178.69 100.153C179.239 100.57 179.66 101.127 179.905 101.761C180.149 102.396 180.209 103.083 180.077 103.749C179.974 104.234 180.741 104.441 180.845 103.954C181.018 103.124 180.945 102.264 180.635 101.473C180.325 100.682 179.789 99.9928 179.091 99.4854C178.911 99.3406 178.684 99.262 178.45 99.2635C178.31 99.2782 178.177 99.3326 178.069 99.42C177.961 99.5073 177.881 99.6237 177.84 99.7547C177.772 99.9317 177.743 100.121 177.756 100.309C177.768 100.498 177.821 100.682 177.912 100.849C178.242 101.489 178.927 101.856 179.156 102.56C179.41 103.342 179.479 104.22 180.388 104.542C180.49 104.569 180.599 104.555 180.69 104.505C180.782 104.454 180.849 104.371 180.878 104.272C180.904 104.174 180.889 104.069 180.838 103.981C180.786 103.892 180.701 103.826 180.6 103.797Z" fill="#116B35"/>
<path d="M183.791 102.765C183.319 102.599 183.274 101.977 183.146 101.577C182.912 100.98 182.561 100.432 182.114 99.9624C181.934 99.7734 181.806 99.5435 181.741 99.2938C181.734 99.2458 181.733 99.1972 181.737 99.1489C181.742 99.1025 181.782 99.0308 181.775 98.9886L181.781 98.9753C181.806 98.9282 181.769 98.9351 181.668 98.996C181.691 99.0043 181.714 99.0141 181.736 99.0252C181.796 99.075 181.871 99.1122 181.934 99.1608C182.439 99.5552 182.829 100.071 183.066 100.656C183.337 101.31 183.407 102.025 183.268 102.716C183.165 103.201 183.932 103.409 184.036 102.922C184.205 102.111 184.14 101.271 183.847 100.495C183.554 99.7181 183.045 99.0356 182.377 98.5229C182.216 98.3853 182.022 98.2885 181.813 98.2411C181.673 98.2174 181.53 98.2365 181.402 98.2959C181.274 98.3552 181.169 98.4518 181.1 98.5721C181.006 98.7463 180.951 98.9383 180.941 99.1349C180.93 99.3314 180.964 99.5278 181.04 99.7105C181.321 100.412 182.018 100.858 182.299 101.555C182.448 101.924 182.509 102.32 182.671 102.685C182.753 102.878 182.877 103.051 183.033 103.193C183.19 103.335 183.376 103.443 183.579 103.51C184.062 103.68 184.27 102.933 183.791 102.765Z" fill="#116B35"/>
<path d="M187.332 104.518C187.025 103.967 187.455 103.313 187.633 102.784C187.825 102.215 187.796 101.62 187.933 101.042C187.971 100.807 188.094 100.592 188.279 100.437C188.33 100.399 188.49 100.357 188.364 100.34C188.271 100.327 188.316 100.342 188.341 100.429C188.378 100.56 188.403 100.694 188.416 100.83C188.476 101.426 188.389 102.028 188.162 102.585C187.919 103.192 187.511 103.722 186.98 104.119C186.891 104.173 186.827 104.258 186.8 104.356C186.774 104.454 186.787 104.559 186.837 104.648C186.891 104.736 186.978 104.8 187.08 104.826C187.182 104.852 187.29 104.838 187.381 104.787C188.025 104.317 188.532 103.693 188.85 102.975C189.168 102.256 189.287 101.47 189.195 100.694C189.144 100.305 189.07 99.7857 188.631 99.6333C188.201 99.4842 187.764 99.7867 187.509 100.106C187.033 100.701 187.121 101.477 186.977 102.176C186.782 103.113 186.113 103.953 186.645 104.908C186.889 105.346 187.576 104.956 187.332 104.518Z" fill="#116B35"/>
<path d="M183.964 100.044C183.634 99.4571 183.959 98.7982 184.124 98.2091C184.224 97.6253 184.359 97.0474 184.527 96.4784C184.606 96.2645 184.749 96.0787 184.939 95.9452C184.977 95.9218 185.016 95.9011 185.057 95.883C185.053 95.8569 184.936 95.8667 184.94 95.858C184.951 95.9124 184.967 95.9657 184.988 96.0173C185.02 96.1514 185.042 96.2875 185.054 96.4246C185.101 96.9986 185.012 97.5754 184.794 98.111C184.551 98.7176 184.142 99.2482 183.612 99.6454C183.523 99.6993 183.459 99.784 183.432 99.8822C183.406 99.9804 183.419 100.085 183.469 100.174C183.523 100.262 183.61 100.326 183.712 100.352C183.814 100.378 183.922 100.364 184.013 100.313C184.653 99.847 185.157 99.2281 185.475 98.5165C185.794 97.8049 185.917 97.0252 185.831 96.2537C185.785 95.8851 185.729 95.4026 185.358 95.1983C184.951 94.9742 184.484 95.2545 184.203 95.546C183.665 96.1066 183.601 96.887 183.453 97.6026C183.255 98.5641 182.743 99.4843 183.277 100.434C183.522 100.871 184.21 100.481 183.964 100.044Z" fill="#116B35"/>
<path d="M186.343 107.425C186.629 106.973 187.209 106.928 187.7 106.843C188.007 106.795 188.31 106.719 188.603 106.618C188.921 106.502 189.228 106.357 189.55 106.249C189.818 106.133 190.119 106.107 190.404 106.176C190.42 106.182 190.6 106.278 190.607 106.274C190.633 106.261 190.564 106.172 190.57 106.172C190.566 106.172 190.538 106.212 190.532 106.216C190.41 106.297 190.309 106.415 190.188 106.5C189.691 106.846 189.116 107.072 188.511 107.16C187.841 107.261 187.155 107.181 186.528 106.929C186.436 106.881 186.329 106.868 186.228 106.894C186.126 106.919 186.039 106.982 185.984 107.068C185.931 107.156 185.917 107.261 185.943 107.36C185.97 107.459 186.036 107.544 186.126 107.596C186.886 107.914 187.719 108.028 188.539 107.927C189.359 107.825 190.136 107.513 190.789 107.021C191.114 106.773 191.473 106.442 191.337 106.001C191.21 105.592 190.684 105.411 190.291 105.37C189.434 105.282 188.68 105.845 187.873 106.024C187.031 106.211 186.156 106.244 185.655 107.035C185.386 107.46 186.075 107.848 186.343 107.425Z" fill="#116B35"/>
<path d="M184.253 102.725C183.943 102.026 183.908 101.24 184.155 100.517C184.402 99.7945 184.913 99.1845 185.592 98.8029C185.622 98.7856 185.653 98.769 185.685 98.7529C185.743 98.7433 185.752 98.7301 185.712 98.7134C185.776 98.5008 185.686 98.6676 185.662 98.7216C185.59 98.8851 185.517 99.0481 185.442 99.2107C185.277 99.5739 185.106 99.9352 184.932 100.294C184.572 101.035 184.195 101.769 183.783 102.484C183.533 102.918 184.22 103.308 184.47 102.874C184.869 102.182 185.235 101.472 185.585 100.755C185.756 100.404 185.923 100.052 186.085 99.6973C186.157 99.5417 186.228 99.3857 186.297 99.2293C186.395 99.0623 186.461 98.8797 186.493 98.6902C186.493 98.5869 186.471 98.4848 186.427 98.3905C186.384 98.2962 186.32 98.2119 186.241 98.143C186.162 98.074 186.069 98.022 185.967 97.9904C185.866 97.9588 185.759 97.9482 185.653 97.9594C185.262 98.0581 184.903 98.2542 184.614 98.5283C184.028 99.0032 183.595 99.6317 183.367 100.339C183.083 101.257 183.154 102.244 183.566 103.115C183.62 103.203 183.707 103.267 183.809 103.293C183.911 103.319 184.019 103.305 184.11 103.254C184.199 103.2 184.264 103.115 184.291 103.017C184.317 102.919 184.304 102.814 184.253 102.725Z" fill="#116B35"/>
<path d="M181.406 106.512C180.835 106.761 180.137 106.286 179.626 106.083C179.053 105.855 178.441 105.832 177.858 105.651C177.638 105.593 177.446 105.463 177.314 105.283C177.296 105.247 177.275 105.211 177.252 105.178C177.272 105.183 177.166 105.246 177.212 105.237C177.253 105.229 177.293 105.219 177.334 105.212C177.482 105.189 177.631 105.178 177.781 105.177C178.419 105.169 179.05 105.316 179.614 105.606C180.178 105.896 180.658 106.319 181.01 106.836C181.286 107.253 181.976 106.866 181.698 106.446C181.258 105.789 180.649 105.256 179.932 104.899C179.214 104.542 178.412 104.374 177.606 104.411C177.208 104.436 176.719 104.479 176.515 104.866C176.305 105.261 176.61 105.745 176.914 106.008C177.497 106.513 178.302 106.486 179.012 106.688C179.486 106.823 179.912 107.073 180.378 107.228C180.843 107.396 181.357 107.379 181.808 107.18C181.899 107.127 181.964 107.043 181.991 106.944C182.018 106.845 182.003 106.74 181.951 106.651C181.896 106.564 181.808 106.502 181.707 106.476C181.606 106.45 181.498 106.463 181.406 106.512Z" fill="#116B35"/>
<path d="M279.199 126.893C279.15 126.914 271.527 126.914 271.577 126.936C268.838 122.532 267.776 118.81 267.425 116.085C267.348 115.461 267.408 114.829 267.6 114.229C267.793 113.629 268.114 113.076 268.543 112.605C268.972 112.135 269.498 111.757 270.088 111.498C270.678 111.239 271.317 111.104 271.964 111.102L278.864 111.063C279.467 111.059 280.066 111.171 280.625 111.391C281.184 111.612 281.693 111.937 282.122 112.348C282.551 112.76 282.893 113.249 283.128 113.789C283.362 114.329 283.485 114.908 283.489 115.494C283.504 118.805 282.741 123.344 279.199 126.893Z" fill="#116B35"/>
<path d="M275.26 111.628C275.634 108.688 275.483 105.707 274.816 102.817C274.704 102.332 273.937 102.537 274.048 103.022C274.694 105.846 274.835 108.757 274.465 111.628C274.402 112.12 275.198 112.116 275.26 111.628Z" fill="#116B35"/>
<path d="M276.326 111.82C276.506 109.369 277.137 106.968 278.191 104.733C278.403 104.285 277.717 103.892 277.503 104.344C276.388 106.7 275.72 109.233 275.531 111.82C275.494 112.316 276.29 112.314 276.326 111.82Z" fill="#116B35"/>
<path d="M274.099 111.741C273.868 108.996 273.058 106.326 271.72 103.898C271.479 103.459 270.791 103.849 271.033 104.288C272.307 106.595 273.079 109.132 273.303 111.741C273.345 112.233 274.142 112.237 274.099 111.741Z" fill="#116B35"/>
<path d="M271.436 103.642C270.982 103.481 270.931 102.809 270.826 102.422C270.753 102.126 270.636 101.841 270.479 101.577C270.298 101.314 270.092 101.069 269.863 100.844C269.675 100.677 269.523 100.477 269.414 100.253C269.381 100.168 269.372 100.075 269.388 99.9851C269.403 99.9463 269.414 99.9062 269.421 99.8653L269.427 99.852C269.452 99.8049 269.414 99.8118 269.313 99.8728C269.314 99.8786 269.506 99.982 269.526 99.9968C270.076 100.414 270.496 100.971 270.741 101.605C270.986 102.24 271.046 102.928 270.914 103.593C270.811 104.078 271.578 104.286 271.681 103.798C271.855 102.969 271.782 102.108 271.471 101.317C271.161 100.526 270.626 99.8371 269.928 99.3297C269.748 99.1849 269.521 99.1064 269.287 99.1078C269.146 99.1225 269.014 99.1769 268.905 99.2643C268.797 99.3516 268.717 99.468 268.677 99.5989C268.609 99.776 268.58 99.965 268.592 100.154C268.604 100.342 268.658 100.526 268.748 100.694C269.079 101.333 269.763 101.7 269.992 102.405C270.246 103.186 270.316 104.065 271.225 104.387C271.327 104.413 271.435 104.399 271.527 104.349C271.618 104.298 271.686 104.215 271.714 104.117C271.74 104.018 271.726 103.913 271.674 103.825C271.622 103.736 271.537 103.671 271.436 103.642Z" fill="#116B35"/>
<path d="M274.627 102.609C274.155 102.443 274.11 101.822 273.982 101.422C273.748 100.824 273.398 100.276 272.951 99.8067C272.771 99.6177 272.642 99.3878 272.577 99.1381C272.57 99.0901 272.569 99.0415 272.574 98.9932C272.578 98.9468 272.618 98.8751 272.612 98.8329L272.618 98.8196C272.642 98.7725 272.605 98.7794 272.504 98.8403C272.527 98.8486 272.55 98.8583 272.572 98.8695C272.632 98.9192 272.708 98.9565 272.77 99.0051C273.275 99.3995 273.665 99.915 273.902 100.501C274.173 101.154 274.243 101.869 274.104 102.56C274.001 103.046 274.768 103.253 274.872 102.766C275.041 101.955 274.976 101.115 274.683 100.339C274.39 99.5623 273.881 98.8798 273.213 98.3672C273.052 98.2295 272.858 98.1328 272.649 98.0854C272.51 98.0617 272.366 98.0808 272.238 98.1402C272.11 98.1995 272.005 98.296 271.936 98.4164C271.842 98.5906 271.787 98.7826 271.777 98.9792C271.767 99.1757 271.8 99.3721 271.876 99.5548C272.157 100.256 272.854 100.702 273.135 101.399C273.284 101.769 273.345 102.164 273.508 102.529C273.589 102.722 273.713 102.895 273.87 103.037C274.026 103.18 274.212 103.288 274.416 103.354C274.898 103.524 275.106 102.778 274.627 102.609Z" fill="#116B35"/>
<path d="M278.168 104.363C277.861 103.811 278.291 103.157 278.469 102.628C278.661 102.059 278.632 101.464 278.769 100.886C278.807 100.651 278.93 100.436 279.115 100.281C279.166 100.244 279.326 100.202 279.2 100.184C279.108 100.172 279.152 100.187 279.177 100.273C279.214 100.404 279.239 100.539 279.252 100.674C279.312 101.271 279.225 101.872 278.998 102.429C278.756 103.036 278.347 103.567 277.816 103.964C277.727 104.018 277.663 104.102 277.636 104.201C277.61 104.299 277.623 104.403 277.673 104.492C277.727 104.58 277.814 104.644 277.916 104.67C278.018 104.696 278.126 104.682 278.218 104.631C278.862 104.162 279.368 103.537 279.686 102.819C280.004 102.101 280.123 101.314 280.031 100.538C279.98 100.149 279.906 99.63 279.467 99.4776C279.037 99.3285 278.6 99.631 278.345 99.9499C277.869 100.545 277.958 101.321 277.813 102.02C277.619 102.957 276.949 103.797 277.481 104.753C277.725 105.19 278.412 104.8 278.168 104.363Z" fill="#116B35"/>
<path d="M274.8 99.8886C274.47 99.3014 274.796 98.6425 274.96 98.0534C275.06 97.4696 275.195 96.8917 275.363 96.3227C275.442 96.1088 275.586 95.923 275.775 95.7895C275.813 95.7661 275.852 95.7454 275.893 95.7273C275.889 95.7012 275.772 95.711 275.776 95.7023C275.787 95.7567 275.804 95.81 275.825 95.8616C275.857 95.9957 275.878 96.1318 275.89 96.2689C275.937 96.8429 275.848 97.4197 275.63 97.9553C275.388 98.5619 274.979 99.0925 274.448 99.4897C274.359 99.5436 274.295 99.6283 274.268 99.7265C274.242 99.8247 274.255 99.9291 274.305 100.018C274.359 100.106 274.446 100.17 274.548 100.196C274.65 100.222 274.758 100.208 274.849 100.157C275.489 99.6913 275.993 99.0724 276.311 98.3608C276.63 97.6492 276.753 96.8695 276.668 96.098C276.621 95.7294 276.565 95.2469 276.194 95.0426C275.787 94.8185 275.32 95.0988 275.04 95.3903C274.501 95.9509 274.437 96.7313 274.29 97.4469C274.091 98.4084 273.579 99.3285 274.113 100.279C274.358 100.715 275.046 100.326 274.8 99.8886Z" fill="#116B35"/>
<path d="M277.179 107.269C277.465 106.818 278.045 106.772 278.536 106.687C278.844 106.639 279.146 106.564 279.439 106.462C279.758 106.347 280.064 106.201 280.386 106.094C280.654 105.977 280.955 105.951 281.241 106.021C281.257 106.026 281.436 106.122 281.443 106.118C281.469 106.105 281.4 106.017 281.406 106.017C281.402 106.017 281.374 106.056 281.368 106.06C281.247 106.142 281.146 106.259 281.024 106.344C280.527 106.691 279.952 106.917 279.347 107.004C278.677 107.106 277.991 107.026 277.364 106.773C277.272 106.725 277.165 106.712 277.064 106.738C276.963 106.764 276.875 106.826 276.82 106.912C276.767 107.001 276.753 107.106 276.779 107.205C276.806 107.303 276.872 107.388 276.962 107.44C277.722 107.758 278.555 107.872 279.375 107.771C280.195 107.67 280.972 107.357 281.625 106.865C281.95 106.617 282.309 106.287 282.173 105.845C282.047 105.436 281.52 105.255 281.127 105.215C280.27 105.126 279.516 105.689 278.71 105.869C277.868 106.056 276.993 106.088 276.492 106.879C276.223 107.304 276.911 107.693 277.179 107.269Z" fill="#116B35"/>
<path d="M275.089 102.569C274.779 101.87 274.745 101.084 274.991 100.362C275.238 99.6388 275.749 99.0288 276.428 98.6472C276.459 98.6299 276.49 98.6133 276.521 98.5972C276.579 98.5876 276.588 98.5744 276.548 98.5577C276.613 98.3451 276.522 98.5119 276.499 98.5659C276.426 98.7294 276.353 98.8924 276.279 99.055C276.113 99.4182 275.942 99.7795 275.768 100.139C275.408 100.88 275.031 101.613 274.619 102.328C274.369 102.763 275.056 103.153 275.306 102.718C275.705 102.026 276.071 101.316 276.421 100.599C276.592 100.249 276.759 99.896 276.922 99.5416C276.993 99.386 277.064 99.23 277.134 99.0736C277.231 98.9066 277.298 98.724 277.33 98.5345C277.329 98.4312 277.307 98.3291 277.263 98.2348C277.22 98.1405 277.157 98.0562 277.077 97.9872C276.998 97.9183 276.905 97.8663 276.804 97.8347C276.702 97.8031 276.595 97.7925 276.49 97.8037C276.098 97.9024 275.74 98.0985 275.45 98.3726C274.864 98.8475 274.431 99.476 274.203 100.183C273.92 101.101 273.99 102.088 274.402 102.959C274.456 103.047 274.543 103.111 274.645 103.137C274.747 103.163 274.855 103.149 274.946 103.098C275.036 103.044 275.1 102.96 275.127 102.861C275.153 102.763 275.14 102.658 275.089 102.569Z" fill="#116B35"/>
<path d="M272.243 106.357C271.671 106.606 270.974 106.131 270.462 105.927C269.89 105.699 269.277 105.677 268.694 105.495C268.475 105.437 268.283 105.307 268.151 105.127C268.133 105.091 268.112 105.056 268.088 105.022C268.108 105.027 268.003 105.091 268.048 105.082C268.089 105.074 268.13 105.064 268.171 105.057C268.318 105.034 268.468 105.022 268.617 105.022C269.256 105.013 269.886 105.16 270.45 105.45C271.015 105.74 271.495 106.163 271.847 106.68C272.123 107.097 272.812 106.71 272.534 106.29C272.095 105.634 271.486 105.1 270.768 104.743C270.05 104.386 269.248 104.218 268.443 104.256C268.044 104.28 267.556 104.323 267.351 104.71C267.142 105.106 267.447 105.589 267.75 105.852C268.333 106.357 269.139 106.33 269.849 106.532C270.322 106.667 270.749 106.917 271.215 107.073C271.679 107.24 272.193 107.223 272.644 107.024C272.735 106.972 272.801 106.887 272.827 106.788C272.854 106.689 272.84 106.584 272.787 106.495C272.732 106.409 272.645 106.346 272.544 106.32C272.442 106.294 272.334 106.308 272.243 106.357Z" fill="#116B35"/>
<path d="M230.169 108.527C232.293 101.694 231.713 94.3375 228.542 87.8979C228.322 87.4492 227.635 87.8408 227.855 88.2879C230.21 93.1316 231.091 98.5275 230.394 103.841C230.192 105.359 229.86 106.858 229.401 108.322C229.377 108.42 229.394 108.522 229.446 108.608C229.499 108.695 229.584 108.758 229.683 108.784C229.782 108.811 229.889 108.799 229.979 108.751C230.07 108.703 230.138 108.623 230.169 108.527Z" fill="#116B35"/>
<path d="M231.418 99.8859L237.126 92.5692L236.384 92.3742C236.487 94.8642 236.101 97.3503 235.247 99.7004C234.509 101.724 233.234 104.365 230.668 104.446C230.158 104.463 230.155 105.235 230.668 105.219C233.398 105.132 234.902 102.698 235.788 100.496C236.821 97.91 237.295 95.1455 237.18 92.3743C237.178 92.2908 237.147 92.2105 237.094 92.145C237.041 92.0795 236.967 92.0324 236.884 92.0106C236.801 91.9887 236.713 91.9934 236.633 92.0237C236.553 92.0541 236.485 92.1086 236.439 92.1793L230.73 99.4959C230.421 99.8923 231.112 100.278 231.418 99.8859Z" fill="#116B35"/>
<path d="M231.122 96.7399L227.741 91.9345C227.699 91.8712 227.64 91.8206 227.571 91.7888C227.501 91.7569 227.423 91.7452 227.346 91.7549C227.27 91.7646 227.198 91.7954 227.139 91.8435C227.08 91.8917 227.036 91.9553 227.013 92.0268C226.303 93.8337 226.277 95.8268 226.94 97.6505C227.603 99.4742 228.912 101.01 230.633 101.984C230.724 102.031 230.83 102.043 230.93 102.016C231.029 101.989 231.114 101.925 231.166 101.839C231.218 101.752 231.234 101.649 231.209 101.552C231.185 101.455 231.122 101.37 231.035 101.317C229.465 100.428 228.274 99.0245 227.677 97.3585C227.081 95.6925 227.117 93.8743 227.781 92.2322L227.053 92.3245L230.435 97.1299C230.722 97.538 231.412 97.152 231.122 96.7399Z" fill="#116B35"/>
<path d="M228.144 87.6314C227.361 87.5939 226.548 87.5475 225.893 87.0822C225.645 86.9046 225.434 86.6834 225.271 86.4301C225.191 86.3088 225.122 86.1805 225.066 86.0468C225.007 85.9191 224.972 85.7824 224.962 85.6429C224.962 85.68 225 85.6131 224.963 85.6425L224.906 85.6865C224.885 85.7134 224.855 85.7319 224.822 85.7386C224.788 85.7453 224.753 85.7398 224.723 85.723C224.661 85.7305 224.704 85.6296 224.692 85.8093C224.658 86.002 224.657 86.1989 224.69 86.3918C224.713 86.4855 224.755 86.5734 224.815 86.6502C224.875 86.7269 224.95 86.7907 225.037 86.8376C225.123 86.8844 225.219 86.9132 225.317 86.9221C225.416 86.931 225.516 86.9199 225.61 86.8894C225.743 86.8409 225.872 86.782 225.995 86.7131L226.031 86.6955C226.075 86.6753 226.078 86.6737 226.042 86.6908C226.072 86.6411 226.089 86.7388 226.039 86.6828L226.072 86.6823L226.032 86.6798C226.01 86.6758 225.989 86.6669 225.971 86.6539C225.953 86.6408 225.938 86.624 225.928 86.6046C225.915 86.5661 225.913 86.5605 225.921 86.5878C225.934 86.6047 225.934 86.6816 225.928 86.6069C225.93 86.6319 225.93 86.6573 225.93 86.6823C225.931 86.7468 225.927 86.8112 225.926 86.8756C225.918 87.036 225.954 87.1955 226.031 87.3378C226.091 87.4338 226.178 87.5121 226.28 87.5642C226.383 87.6164 226.498 87.6404 226.614 87.6338C226.874 87.6222 227.021 87.4461 227.24 87.3502C227.289 87.3263 227.344 87.3187 227.398 87.3287C227.451 87.3387 227.5 87.3656 227.536 87.4053C227.564 87.4405 227.582 87.4827 227.588 87.5271C227.593 87.5716 227.586 87.6167 227.567 87.6575C227.516 87.7465 227.503 87.8511 227.53 87.9495C227.556 88.0479 227.621 88.1326 227.71 88.186C227.801 88.2368 227.91 88.2507 228.011 88.2248C228.113 88.1989 228.2 88.1352 228.254 88.0474C228.343 87.8934 228.389 87.7193 228.386 87.5428C228.383 87.3663 228.333 87.1936 228.239 87.0422C228.146 86.8907 228.013 86.7659 227.854 86.6802C227.695 86.5945 227.516 86.5511 227.334 86.5544C227.213 86.556 227.093 86.5788 226.98 86.6216C226.84 86.6654 226.712 86.7377 226.604 86.8336C226.463 87.0036 226.56 86.8294 226.566 86.8645C226.566 86.8605 226.708 86.9411 226.718 86.9479L226.732 86.9829C226.722 86.9398 226.72 86.9409 226.726 86.9862C226.726 86.9494 226.722 86.9126 226.722 86.8756C226.736 86.7049 226.723 86.5332 226.684 86.3662C226.651 86.2595 226.59 86.1629 226.507 86.0859C226.424 86.0089 226.322 85.9541 226.211 85.9269C225.997 85.8935 225.778 85.9358 225.593 86.046C225.523 86.0861 225.45 86.1225 225.376 86.1551C225.441 86.131 225.354 86.1629 225.344 86.1592C225.295 86.141 225.39 86.1579 225.395 86.1599C225.423 86.1718 225.467 86.2284 225.471 86.2292C225.453 86.2258 225.454 86.166 225.454 86.155C225.444 86.0197 225.491 85.8847 225.491 85.7493C225.496 85.6211 225.469 85.4936 225.412 85.3778C225.355 85.262 225.27 85.1614 225.164 85.0848C225.05 85.0037 224.911 84.9629 224.77 84.9692C224.63 84.9755 224.495 85.0285 224.39 85.1193C224.029 85.4412 224.176 85.9674 224.338 86.3463C224.517 86.7775 224.793 87.1647 225.145 87.4801C225.497 87.7955 225.917 88.0312 226.374 88.1703C226.951 88.3218 227.546 88.4004 228.144 88.404C228.249 88.404 228.351 88.3633 228.425 88.2909C228.5 88.2184 228.542 88.1202 228.542 88.0177C228.542 87.9153 228.5 87.817 228.425 87.7446C228.351 87.6721 228.249 87.6314 228.144 87.6314Z" fill="#116B35"/>
<path d="M228.482 88.0105C228.556 87.288 228.641 86.5189 229.114 85.9258C229.32 85.6701 229.576 85.4567 229.868 85.2981C230.001 85.224 230.142 85.1633 230.288 85.1169C230.37 85.0911 230.452 85.0733 230.535 85.0513C230.681 85.0124 230.507 85.0472 230.582 85.0415C230.603 85.0397 230.625 85.039 230.646 85.0394C230.696 85.0423 230.703 85.0421 230.665 85.0387C230.723 85.0061 230.705 85.0734 230.679 85.0394L230.655 85.0225C230.626 84.9957 230.606 84.9606 230.599 84.9222C230.591 84.8839 230.596 84.8442 230.613 84.8087C230.608 84.7594 230.697 84.7977 230.568 84.778C230.359 84.7297 230.144 84.7178 229.931 84.7429C229.832 84.7597 229.738 84.7966 229.655 84.8511C229.572 84.9056 229.502 84.9765 229.449 85.0591C229.396 85.1418 229.362 85.2343 229.349 85.3307C229.336 85.4271 229.343 85.5251 229.372 85.6184C229.421 85.7569 229.481 85.8921 229.549 86.0232C229.523 85.9617 229.55 86.0333 229.555 86.0493C229.57 86.0967 229.544 86.1151 229.561 86.06C229.564 86.0343 229.572 86.0092 229.584 85.9858C229.596 85.9666 229.613 85.9505 229.633 85.9387C229.679 85.9222 229.68 85.9204 229.636 85.9331C229.642 85.9236 229.729 85.9345 229.637 85.9308C229.599 85.9293 229.562 85.9304 229.524 85.9285C229.466 85.9255 229.409 85.9193 229.351 85.9166C229.184 85.9012 229.016 85.9324 228.866 86.0066C228.754 86.0719 228.664 86.1694 228.611 86.2859C228.557 86.4023 228.542 86.532 228.567 86.6571C228.635 86.8405 228.721 87.017 228.825 87.1841C228.84 87.23 228.841 87.2794 228.826 87.3256C228.812 87.3718 228.783 87.4126 228.744 87.4426C228.705 87.4725 228.658 87.4902 228.608 87.4931C228.558 87.4961 228.509 87.4843 228.466 87.4592C228.019 87.2162 227.617 87.8833 228.065 88.1263C228.225 88.2201 228.409 88.2697 228.597 88.2697C228.784 88.2697 228.968 88.2202 229.129 88.1264C229.29 88.0326 229.421 87.8981 229.509 87.7373C229.597 87.5765 229.639 87.3955 229.629 87.2137C229.594 86.9779 229.504 86.7528 229.367 86.5553C229.367 86.5553 229.324 86.4897 229.341 86.495C229.444 86.5271 229.289 86.6525 229.268 86.6738L229.23 86.6898C229.275 86.6803 229.272 86.6798 229.223 86.6881C229.26 86.6865 229.296 86.6867 229.332 86.6882C229.515 86.7121 229.7 86.7059 229.88 86.6698C229.988 86.6393 230.087 86.5824 230.167 86.5044C230.247 86.4265 230.304 86.3302 230.335 86.2245C230.375 86.0092 230.334 85.7873 230.22 85.5988C230.207 85.5726 230.143 85.4303 230.163 85.4822C230.16 85.4758 230.13 85.3786 230.131 85.3786C230.17 85.3783 230.089 85.5114 230.137 85.4174C230.192 85.308 230.082 85.5317 230.075 85.5022C230.071 85.4899 230.149 85.4942 230.152 85.4943C230.292 85.4976 230.428 85.5455 230.568 85.5506C230.704 85.5601 230.84 85.5359 230.963 85.4803C231.087 85.4247 231.193 85.3396 231.274 85.233C231.356 85.1201 231.396 84.9829 231.386 84.8449C231.375 84.7069 231.316 84.5766 231.218 84.4762C230.893 84.1542 230.364 84.2676 229.98 84.4044C229.545 84.5575 229.147 84.796 228.811 85.105C228.442 85.4509 228.162 85.876 227.993 86.3461C227.821 86.8866 227.718 87.4456 227.686 88.0105C227.687 88.1127 227.729 88.2106 227.803 88.2829C227.878 88.3552 227.979 88.3961 228.084 88.3968C228.189 88.3946 228.289 88.3532 228.363 88.2813C228.437 88.2093 228.48 88.1123 228.482 88.0105Z" fill="#116B35"/>
<path d="M228.447 87.2026C228.11 86.5855 227.706 86.0048 227.242 85.4704C227.133 85.3446 227.021 85.2217 226.906 85.1017C226.799 85.0059 226.701 84.9017 226.611 84.7903C226.594 84.7629 226.598 84.748 226.589 84.742C226.582 84.7152 226.581 84.7134 226.587 84.7367C226.594 84.7521 226.594 84.7691 226.588 84.7848C226.593 84.8155 226.557 84.8091 226.592 84.7797C226.529 84.8324 226.48 84.8818 226.381 84.8524C226.343 84.8413 226.319 84.8022 226.29 84.7874C226.262 84.7731 226.298 84.7753 226.29 84.7969C226.275 84.8413 226.234 84.942 226.209 85.0009L226.977 85.2063C226.987 85.1586 227.023 85.1109 226.976 85.166C226.993 85.146 227.012 85.1272 227.033 85.11C227.007 85.1307 227.014 85.1282 227.054 85.1024C226.999 85.1223 227.113 85.0854 227.114 85.0851C227.037 85.101 227.22 85.1008 227.153 85.0873C227.225 85.1058 227.291 85.141 227.346 85.1898C227.4 85.2386 227.442 85.2996 227.467 85.3675C227.549 85.5774 227.584 85.8017 227.571 86.0257C227.573 86.2817 227.545 86.5372 227.49 86.7875C227.464 86.8863 227.479 86.9907 227.531 87.0793C227.583 87.1678 227.668 87.2335 227.768 87.2628C227.87 87.2889 227.978 87.2753 228.07 87.2249C228.161 87.1744 228.229 87.0912 228.258 86.9929C228.417 86.2724 228.493 85.3395 227.983 84.7302C227.873 84.5936 227.731 84.4848 227.568 84.4132C227.406 84.3416 227.227 84.3093 227.049 84.3191C226.853 84.3326 226.666 84.4057 226.516 84.5281C226.365 84.6505 226.258 84.816 226.209 85.0009C226.181 85.0997 226.194 85.2053 226.247 85.2944C226.299 85.3835 226.385 85.4489 226.487 85.4761C226.589 85.5033 226.698 85.4902 226.789 85.4396C226.881 85.389 226.948 85.3051 226.977 85.2063C227.043 85.0814 227.078 84.9427 227.078 84.802C227.078 84.6612 227.044 84.5225 226.977 84.3974C226.908 84.2818 226.802 84.1912 226.675 84.1392C226.549 84.0872 226.408 84.0767 226.274 84.1092C226.141 84.1522 226.024 84.2333 225.94 84.3418C225.855 84.4503 225.806 84.5812 225.799 84.7172C225.798 84.8411 225.823 84.9638 225.872 85.0782C225.921 85.1926 225.993 85.2963 226.084 85.383C226.386 85.7176 226.707 86.0274 226.98 86.3862C227.271 86.7688 227.532 87.172 227.76 87.5925C227.786 87.6363 227.821 87.6746 227.863 87.7053C227.905 87.7359 227.952 87.7583 228.003 87.7712C228.053 87.7841 228.106 87.7872 228.158 87.7803C228.209 87.7734 228.259 87.7567 228.304 87.731C228.35 87.7054 228.389 87.6715 228.421 87.631C228.452 87.5906 228.475 87.5446 228.489 87.4955C228.502 87.4464 228.505 87.3953 228.498 87.345C228.491 87.2947 228.474 87.2464 228.447 87.2026Z" fill="#116B35"/>
<path d="M298 126.612H126.08V127.298H298V126.612Z" fill="#116B35"/>
<path d="M158.358 96.6661C158.358 95.9934 157.55 95.4479 156.554 95.4479C155.558 95.4479 154.75 95.9934 154.75 96.6661C154.75 97.3389 155.558 97.8843 156.554 97.8843C157.55 97.8843 158.358 97.3389 158.358 96.6661Z" fill="#116B35"/>
<path d="M145.103 100.625C146.099 100.625 146.907 100.08 146.907 99.4071C146.907 98.7343 146.099 98.1889 145.103 98.1889C144.106 98.1889 143.299 98.7343 143.299 99.4071C143.299 100.08 144.106 100.625 145.103 100.625Z" fill="#116B35"/>
<path d="M161.103 106.564C162.099 106.564 162.907 106.019 162.907 105.346C162.907 104.673 162.099 104.128 161.103 104.128C160.107 104.128 159.299 104.673 159.299 105.346C159.299 106.019 160.107 106.564 161.103 106.564Z" fill="#116B35"/>
<path d="M165.85 109.365C165.762 109.374 165.673 109.366 165.588 109.343C165.395 109.255 165.23 109.119 165.111 108.948C164.991 108.778 164.921 108.579 164.908 108.373C164.856 108.158 164.872 107.933 164.955 107.727C165.038 107.522 165.183 107.345 165.372 107.222C165.423 107.196 165.479 107.179 165.536 107.172C165.972 107.113 166.394 107.559 166.478 108.164C166.563 108.769 166.281 109.306 165.85 109.365Z" fill="#116B35"/>
<path d="M153.145 103.516C152.711 103.574 152.429 104.112 152.514 104.718C152.6 105.323 153.022 105.767 153.456 105.709C153.89 105.651 154.172 105.113 154.086 104.507C154 103.902 153.578 103.458 153.145 103.516Z" fill="#116B35"/>
<path d="M159.292 100.994C159.206 100.388 158.784 99.9446 158.35 100.003C157.916 100.061 157.634 100.599 157.72 101.204C157.806 101.81 158.228 102.253 158.662 102.195C159.095 102.137 159.378 101.599 159.292 100.994Z" fill="#116B35"/>
<path d="M150.094 98.2705C150.528 98.2125 150.81 97.6746 150.724 97.0691C150.638 96.4636 150.216 96.0198 149.783 96.0778C149.349 96.1358 149.067 96.6737 149.152 97.2793C149.238 97.8848 149.66 98.3286 150.094 98.2705Z" fill="#116B35"/>
<path d="M151.632 107.414C151.628 106.952 151.071 106.582 150.388 106.587C149.704 106.592 149.153 106.971 149.157 107.432C149.16 107.894 149.717 108.264 150.401 108.259C151.084 108.254 151.635 107.875 151.632 107.414Z" fill="#116B35"/>
<path d="M142.56 110.198C143.244 110.192 143.795 109.814 143.791 109.353C143.788 108.891 143.231 108.521 142.547 108.526C141.864 108.531 141.313 108.91 141.316 109.371C141.32 109.833 141.877 110.203 142.56 110.198Z" fill="#116B35"/>
<path d="M153.569 114.19C154.252 114.184 154.803 113.806 154.799 113.345C154.796 112.883 154.239 112.513 153.555 112.518C152.872 112.523 152.321 112.902 152.324 113.363C152.328 113.825 152.885 114.195 153.569 114.19Z" fill="#116B35"/>
<path d="M156.84 116.087C156.78 116.093 156.719 116.088 156.66 116.073C156.528 116.014 156.414 115.921 156.331 115.805C156.248 115.688 156.199 115.552 156.189 115.411C156.152 115.264 156.162 115.109 156.217 114.968C156.273 114.826 156.372 114.705 156.501 114.619C156.536 114.601 156.574 114.589 156.613 114.584C156.912 114.541 157.204 114.845 157.265 115.26C157.326 115.674 157.136 116.044 156.84 116.087Z" fill="#116B35"/>
<path d="M148.093 112.14C147.795 112.182 147.605 112.552 147.667 112.967C147.729 113.382 148.021 113.684 148.318 113.642C148.616 113.6 148.806 113.23 148.744 112.815C148.682 112.4 148.39 112.097 148.093 112.14Z" fill="#116B35"/>
<path d="M152.296 110.378C152.234 109.963 151.942 109.661 151.645 109.703C151.347 109.745 151.157 110.115 151.219 110.53C151.281 110.945 151.573 111.247 151.87 111.205C152.168 111.163 152.358 110.793 152.296 110.378Z" fill="#116B35"/>
<path d="M145.971 108.557C146.269 108.515 146.459 108.144 146.397 107.729C146.335 107.314 146.043 107.012 145.746 107.054C145.449 107.096 145.258 107.467 145.32 107.881C145.382 108.296 145.674 108.599 145.971 108.557Z" fill="#116B35"/>
<path d="M134.402 105.743C134.397 105.07 133.585 104.53 132.589 104.538C131.592 104.545 130.789 105.097 130.794 105.769C130.8 106.442 131.612 106.982 132.608 106.974C133.604 106.967 134.408 106.415 134.402 105.743Z" fill="#116B35"/>
<path d="M121.179 109.8C122.175 109.793 122.978 109.242 122.973 108.569C122.968 107.896 122.156 107.357 121.159 107.364C120.163 107.372 119.36 107.923 119.365 108.596C119.37 109.269 120.182 109.808 121.179 109.8Z" fill="#116B35"/>
<path d="M137.226 115.62C138.222 115.612 139.025 115.061 139.02 114.388C139.014 113.715 138.203 113.176 137.206 113.183C136.21 113.191 135.407 113.742 135.412 114.415C135.417 115.088 136.229 115.627 137.226 115.62Z" fill="#116B35"/>
<path d="M141.995 118.386C141.907 118.395 141.817 118.388 141.732 118.365C141.539 118.279 141.373 118.144 141.252 117.974C141.131 117.804 141.059 117.606 141.045 117.4C140.991 117.186 141.005 116.96 141.087 116.754C141.168 116.548 141.312 116.371 141.5 116.246C141.551 116.22 141.606 116.202 141.663 116.194C142.099 116.132 142.524 116.575 142.613 117.179C142.703 117.784 142.426 118.323 141.995 118.386Z" fill="#116B35"/>
<path d="M129.243 112.631C128.81 112.693 128.532 113.233 128.623 113.837C128.714 114.442 129.139 114.883 129.572 114.822C130.005 114.76 130.283 114.22 130.193 113.615C130.102 113.011 129.677 112.57 129.243 112.631Z" fill="#116B35"/>
<path d="M135.37 110.063C135.28 109.458 134.855 109.018 134.421 109.079C133.988 109.14 133.71 109.68 133.801 110.285C133.891 110.89 134.316 111.331 134.75 111.269C135.183 111.208 135.461 110.668 135.37 110.063Z" fill="#116B35"/>
<path d="M126.151 107.409C126.584 107.347 126.862 106.807 126.772 106.202C126.681 105.598 126.256 105.157 125.822 105.218C125.389 105.279 125.111 105.819 125.202 106.424C125.293 107.029 125.718 107.47 126.151 107.409Z" fill="#116B35"/>
<path d="M145.555 102.951C145.555 107.852 133.608 99.098 123.405 105.988C110.955 114.395 100.546 108.396 100.548 102.951C100.549 98.0494 110.977 88.2385 123.405 88.2385C135.833 88.2385 145.555 98.0494 145.555 102.951Z" fill="#116B35"/>
<path d="M134.657 97.353C134.657 99.8036 129.619 99.7299 123.405 99.7299C117.191 99.7299 112.153 99.8036 112.153 97.353C112.153 94.9023 117.191 90.8554 123.405 90.8554C129.619 90.8554 134.657 94.9023 134.657 97.353Z" fill="#116B35"/>
<path d="M45.9646 113.752L45.9487 117.191L59.9124 118.889L59.9361 113.812L45.9646 113.752Z" fill="#FFB6B6"/>
<path d="M47.8689 117.424L47.6602 113.757L47.6107 112.861L38.661 112.098L38.6469 114.677L41.1549 115.148L38.6398 116.315L38.6079 123.152C38.6061 123.48 38.7124 123.8 38.9113 124.065C39.1102 124.33 39.3912 124.526 39.7133 124.625C40.0355 124.724 40.3817 124.721 40.7016 124.615C41.0214 124.509 41.298 124.307 41.4909 124.038L42.6547 122.42L45.3998 118.595L47.9361 118.605L47.8689 117.424Z" fill="#2F2E41"/>
<path d="M107.849 108.149C105.515 114.073 103.541 118.657 102.731 119.44C101.832 120.312 95.7479 120.676 88.2274 120.776C80.2894 120.879 70.7525 120.69 64.0137 120.511H64.0101C58.9198 120.374 55.4248 120.24 55.4248 120.24L55.4319 118.344L55.4496 113.791L55.4531 112.881C55.4531 112.881 55.6229 112.836 55.9342 112.744C56.5108 112.582 57.5791 112.28 58.9799 111.878C63.3805 110.615 71.0355 108.393 76.8121 106.58C78.7046 105.982 80.399 105.433 81.7079 104.973C83.2077 104.451 84.2053 104.046 84.4282 103.829C85.7476 102.579 86.3313 103.829 87.1661 105.076C88.001 106.326 88.2592 105.076 89.3523 104.159C90.4453 103.242 92.9109 104.502 92.9109 104.502C92.9109 104.502 92.9321 103.671 92.9675 102.349C93.0206 100.396 93.0984 97.3531 93.1727 94.3107C93.1691 94.3072 93.1691 94.3072 93.1727 94.3072C93.1762 94.1733 93.1797 94.036 93.1833 93.902C94.8813 95.334 96.696 96.6457 98.5036 98.2871C99.6815 99.3551 101.479 101.124 102.759 102.387C103.017 102.645 103.35 102.985 103.612 103.253C105.156 104.773 106.573 106.411 107.849 108.149Z" fill="#2F2E41"/>
<path d="M50.2717 123.631L50.542 127.06L64.6015 127.658L64.2021 122.596L50.2717 123.631Z" fill="#FFB6B6"/>
<path d="M52.4746 127.142L51.9652 123.506L51.8378 122.613L42.8528 122.554L43.0544 125.126L45.5907 125.398L43.1853 126.761L43.723 133.581C43.7489 133.907 43.8817 134.218 44.102 134.466C44.3224 134.714 44.6187 134.888 44.9478 134.961C45.2768 135.034 45.6214 135.003 45.9312 134.873C46.241 134.743 46.4997 134.52 46.6697 134.236L50.1151 128.502L52.6408 128.316L52.4746 127.142Z" fill="#2F2E41"/>
<path d="M110.842 122.376C108.005 126.682 73.059 130.892 59.9387 128.502C59.9635 128.159 60.0024 127.812 60.0484 127.465C60.2429 125.94 60.6073 124.385 60.9115 122.839C61.0389 122.19 61.1591 121.541 61.2511 120.896C61.6933 120.827 61.2087 120.872 61.7888 120.783C62.5241 120.656 63.2656 120.565 64.0103 120.511H64.0138C64.2402 120.494 64.4949 120.477 64.7956 120.456C71.4778 120.013 79.9853 121.881 85.9565 118.705C87.6439 117.805 87.75 117.551 87.9976 117.266C89.4338 115.597 89.5717 116.978 90.8098 117.575C92.0479 118.173 91.8216 117.125 92.1682 116.212C92.5149 115.299 94.0466 115.419 94.9345 115.285C94.1103 114.543 94.6515 114.413 93.2896 113.777C91.2803 112.837 87.9516 111.449 85.5957 110.526C85.5881 110.521 85.5797 110.517 85.5709 110.515C84.5769 110.144 83.1761 109.557 82.2811 109.19C81.5878 108.905 80.378 108.369 79.9959 108.228C79.154 107.916 77.7001 110.869 76.8122 110.357C76.4974 110.172 76.2569 110.028 76.1366 109.959C74.6403 109.09 75.8147 109.543 75.659 108.489C75.6378 108.359 75.698 108.022 75.6803 107.909C75.6414 107.641 75.7333 107.195 75.5989 107.033C75.461 106.875 75.0046 107.672 74.7181 107.789C74.5907 107.844 74.0884 108.225 73.6781 108.184C71.9094 107.995 70.7067 106.319 70.0947 104.64C64.9442 102.473 61.5412 97.4115 60.7311 92.6864C60.0449 88.6963 61.2653 85.5096 62.3442 82.8827C63.3134 80.527 63.6141 80.8533 64.6895 79.1706C64.6577 78.8685 64.6576 78.9474 64.6576 78.968C64.6576 78.9371 64.6506 78.8135 64.6294 78.4083C64.5728 77.3232 64.4383 74.1194 64.3747 72.6256C64.8186 72.1474 65.3183 71.721 65.8639 71.3551C67.5371 70.1464 70.0416 69.4527 71.8705 69.1128C73.954 68.7248 76.6531 69.0029 78.16 69.2158C80.5089 69.5455 81.2871 69.9884 83.2468 70.4348C83.2504 74.0576 84.0286 73.048 83.6466 77.7456C83.261 82.4431 96.6961 96.6457 98.5038 98.2871C99.6817 99.355 101.479 101.123 102.759 102.387C103.018 102.645 103.35 102.985 103.612 103.253C105.112 104.787 108.157 108.592 108.302 108.819C108.486 109.104 108.564 109.327 108.713 109.602C108.716 109.609 113.676 118.07 110.842 122.376Z" fill="#2F2E41"/>
<path d="M156.938 83.7801L156.214 96.1069C156.214 96.4198 156.277 96.7296 156.4 97.0188C156.524 97.3079 156.704 97.5705 156.932 97.7918C157.16 98.013 157.431 98.1885 157.729 98.308C158.026 98.4276 158.346 98.489 158.668 98.4887C165.623 101.929 167.795 102.025 174.026 98.4887C174.349 98.489 174.668 98.4276 174.966 98.308C175.264 98.1885 175.534 98.013 175.762 97.7918C175.99 97.5705 176.171 97.3079 176.294 97.0187C176.417 96.7296 176.48 96.4198 176.48 96.1069L175.756 83.4814L176.48 80.1442C176.48 79.8313 176.417 79.5214 176.294 79.2323C176.171 78.9432 175.99 78.6805 175.762 78.4593C175.534 78.2381 175.263 78.0626 174.966 77.9431C174.668 77.8235 174.349 77.7621 174.026 77.7624H158.668C158.346 77.7621 158.026 77.8235 157.729 77.9431C157.431 78.0626 157.16 78.2381 156.932 78.4593C156.704 78.6805 156.524 78.9432 156.4 79.2323C156.277 79.5214 156.214 79.8313 156.214 80.1442L156.938 83.7801Z" fill="#116B35"/>
<path d="M144.996 76.7086L144.19 78.2737L158.024 86.1935L156.938 93.2193L143.307 79.9873L142.463 81.6267L142.195 81.1075C141.957 80.644 141.844 80.1291 141.868 79.6115C141.892 79.0939 142.052 78.5909 142.332 78.1501C142.613 77.7094 143.005 77.3456 143.471 77.0933C143.937 76.841 144.462 76.7086 144.996 76.7086Z" fill="#116B35"/>
<path d="M160.919 77.9381C160.919 79.9756 163.51 81.6266 166.709 81.6266C169.908 81.6266 172.499 79.9756 172.499 77.9381C172.499 77.8783 172.496 77.8221 172.492 77.7624H160.926C160.923 77.8222 160.919 77.8783 160.919 77.9381Z" fill="#116B35"/>
<path d="M168.338 72.1016C168.337 71.6931 168.17 71.3015 167.872 71.0127C167.575 70.7239 167.171 70.5614 166.75 70.5609H166.668C166.247 70.5614 165.843 70.7239 165.546 71.0127C165.248 71.3015 165.081 71.6931 165.081 72.1016V82.8562H168.338V72.1016Z" fill="#116B35"/>
<path d="M104.049 90.9537C103.845 90.7257 103.595 90.5409 103.314 90.4111C103.033 90.2814 102.728 90.2093 102.417 90.1995C102.417 90.1995 91.1824 88.8886 89.5228 87.7815C88.961 87.7641 88.4128 87.951 87.9855 88.3055C87.5582 88.66 87.2827 89.1566 87.2128 89.698L76.5021 91.6574C75.996 91.7512 75.549 92.036 75.2589 92.4493C74.9689 92.8627 74.8596 93.3708 74.955 93.8623C75.0505 94.3537 75.3428 94.7884 75.7679 95.0709C76.193 95.3534 76.7162 95.4607 77.2227 95.3693L87.8786 93.4199C88.0804 93.8783 88.4374 94.2561 88.8904 94.4909C89.3434 94.7257 89.8653 94.8035 90.37 94.7113L102.369 92.5163C104.08 92.2032 105.19 92.2309 104.049 90.9537Z" fill="#116B35"/>
<path d="M72.5968 73.7361L70.0076 49.3949C69.9011 48.3634 70.2166 47.3325 70.8861 46.5248C71.5557 45.717 72.5255 45.1972 73.5864 45.0775C74.1352 45.0156 74.6912 45.0628 75.2206 45.2163C75.75 45.3698 76.2417 45.6263 76.6656 45.9703C77.0895 46.3142 77.4368 46.7384 77.6864 47.2169C77.9359 47.6954 78.0825 48.2182 78.1171 48.7535L80.0081 74.1181L81.8264 89.4835C82.526 89.6827 83.1455 90.0862 83.6007 90.6391C84.0558 91.192 84.3246 91.8675 84.3705 92.5739C84.4164 93.2802 84.2372 93.9832 83.8572 94.5872C83.4773 95.1912 82.9149 95.6671 82.2467 95.9501C81.5784 96.2331 80.8366 96.3095 80.122 96.169C79.4074 96.0285 78.7547 95.6779 78.2525 95.1647C77.7504 94.6516 77.4232 94.0008 77.3153 93.3008C77.2074 92.6009 77.3241 91.8856 77.6496 91.2523L72.5968 73.7361Z" fill="#FFB6B6"/>
<path d="M68.2311 54.5859C68.0238 54.4292 67.8753 54.2107 67.8083 53.9641C67.7413 53.7175 67.7595 53.4563 67.8602 53.2207C67.9788 52.9278 68.0001 52.6062 67.9213 52.3009C67.9054 52.2421 67.8855 52.1843 67.8617 52.1279C67.7102 51.7919 67.6445 51.4253 67.6702 51.0593C67.6958 50.6934 67.8121 50.3388 68.0092 50.0258C68.673 49.0048 68.8642 47.5633 68.8601 46.3008C68.8556 44.9193 68.774 43.5172 69.1103 42.1748C69.5955 40.2383 71.1306 38.3711 73.6377 38.8489C74.7008 39.0682 75.6535 39.6365 76.3354 40.4581C77.7845 42.1574 78.1023 44.396 78.3853 46.5404L78.7005 45.6383C78.9675 47.9857 79.7202 50.2565 80.9133 52.3147C80.3646 52.2825 80.0811 53.0288 80.3224 53.5083C80.5637 53.9878 81.0864 54.2562 81.5435 54.5527C82.1197 54.9263 82.696 55.5172 82.3031 56.2515C82.204 56.4246 82.0691 56.5759 81.9069 56.696C81.7448 56.816 81.5587 56.9022 81.3606 56.9492C77.6358 57.9136 73.7457 58.1198 69.9349 57.5548C69.0886 57.4288 68.1714 57.2208 67.6501 56.5615C67.1288 55.9022 67.3808 54.6833 68.2311 54.5859Z" fill="#116B35"/>
</g>
<defs>
<clipPath id="clip0_302_1247">
<rect width="298" height="135" fill="white"/>
</clipPath>
</defs>
</svg>
