<svg width="12" height="10" viewBox="0 0 12 10" fill="none" xmlns="http://www.w3.org/2000/svg">
<path d="M11.8368 8.64564L9.49991 6.69856C9.39444 6.61068 9.25146 6.56186 9.10145 6.56186H8.71939C9.36631 5.87247 9.75071 5.00537 9.75071 4.0621C9.75071 1.81818 7.56852 0 4.87536 0C2.18219 0 0 1.81818 0 4.0621C0 6.30602 2.18219 8.12421 4.87536 8.12421C6.00747 8.12421 7.04817 7.80393 7.87558 7.26492V7.58324C7.87558 7.70823 7.93417 7.82736 8.03965 7.91524L10.3765 9.86232C10.5969 10.0459 10.9531 10.0459 11.1711 9.86232L11.8345 9.30964C12.0548 9.12606 12.0548 8.82922 11.8368 8.64564ZM4.87536 6.56186C3.2182 6.56186 1.87514 5.44478 1.87514 4.0621C1.87514 2.68138 3.21586 1.56235 4.87536 1.56235C6.53251 1.56235 7.87558 2.67943 7.87558 4.0621C7.87558 5.44283 6.53485 6.56186 4.87536 6.56186Z" fill="#214C49" fill-opacity="0.33"/>
</svg>
