<svg width="27" height="23" viewBox="0 0 27 23" fill="none" xmlns="http://www.w3.org/2000/svg">
<path d="M13.142 5.9668L4.50036 13.7635V22.1785C4.50036 22.3964 4.57937 22.6053 4.72001 22.7594C4.86065 22.9134 5.0514 23 5.2503 23L10.5027 22.9851C10.701 22.984 10.8907 22.897 11.0306 22.743C11.1704 22.5891 11.2489 22.3808 11.2489 22.1636V17.2494C11.2489 17.0315 11.3279 16.8225 11.4686 16.6685C11.6092 16.5144 11.7999 16.4278 11.9988 16.4278H14.9986C15.1975 16.4278 15.3883 16.5144 15.5289 16.6685C15.6695 16.8225 15.7486 17.0315 15.7486 17.2494V22.16C15.7482 22.2681 15.7674 22.3752 15.805 22.4752C15.8425 22.5751 15.8977 22.666 15.9674 22.7426C16.037 22.8191 16.1198 22.8799 16.211 22.9213C16.3021 22.9627 16.3998 22.9841 16.4985 22.9841L21.749 23C21.9479 23 22.1387 22.9134 22.2793 22.7594C22.42 22.6053 22.499 22.3964 22.499 22.1785V13.7579L13.8592 5.9668C13.7576 5.87712 13.6311 5.82821 13.5006 5.82821C13.3701 5.82821 13.2436 5.87712 13.142 5.9668ZM26.7924 11.2661L22.8739 7.72794V0.61614C22.8739 0.45273 22.8147 0.296012 22.7092 0.180463C22.6037 0.0649147 22.4607 0 22.3115 0H19.6867C19.5375 0 19.3944 0.0649147 19.289 0.180463C19.1835 0.296012 19.1242 0.45273 19.1242 0.61614V4.3443L14.9278 0.562228C14.5251 0.199208 14.0198 0.000725682 13.4983 0.000725682C12.9767 0.000725682 12.4714 0.199208 12.0687 0.562228L0.204124 11.2661C0.14717 11.3177 0.100049 11.381 0.065454 11.4526C0.0308591 11.5241 0.00946838 11.6024 0.00250394 11.683C-0.00446049 11.7635 0.00313788 11.8448 0.0248649 11.9222C0.0465919 11.9996 0.0820218 12.0715 0.12913 12.1339L1.32435 13.7255C1.37133 13.7881 1.42912 13.8399 1.4944 13.878C1.55968 13.9161 1.63118 13.9397 1.7048 13.9475C1.77842 13.9553 1.85272 13.947 1.92344 13.9233C1.99416 13.8996 2.05992 13.8608 2.11695 13.8092L13.142 3.86166C13.2436 3.77197 13.3701 3.72306 13.5006 3.72306C13.6311 3.72306 13.7576 3.77197 13.8592 3.86166L24.8847 13.8092C24.9417 13.8608 25.0073 13.8997 25.0779 13.9235C25.1486 13.9473 25.2228 13.9556 25.2963 13.948C25.3699 13.9403 25.4414 13.9169 25.5067 13.879C25.5719 13.8411 25.6298 13.7895 25.6769 13.7271L26.8721 12.1354C26.9191 12.0727 26.9544 12.0004 26.9759 11.9227C26.9974 11.845 27.0046 11.7634 26.9972 11.6826C26.9898 11.6018 26.9679 11.5235 26.9327 11.452C26.8976 11.3805 26.8499 11.3173 26.7924 11.2661Z" fill="#0D2725"/>
</svg>
