<svg width="28" height="22" viewBox="0 0 28 22" fill="none" xmlns="http://www.w3.org/2000/svg">
<path d="M28 5.5V19.6429C28 20.9442 26.8242 22 25.375 22H2.625C1.17578 22 0 20.9442 0 19.6429V5.5C0 4.19866 1.17578 3.14286 2.625 3.14286H7.4375L8.11016 1.52723C8.49297 0.608928 9.47188 0 10.5656 0H17.4289C18.5227 0 19.5016 0.608928 19.8844 1.52723L20.5625 3.14286H25.375C26.8242 3.14286 28 4.19866 28 5.5ZM20.5625 12.5714C20.5625 9.32054 17.6203 6.67857 14 6.67857C10.3797 6.67857 7.4375 9.32054 7.4375 12.5714C7.4375 15.8223 10.3797 18.4643 14 18.4643C17.6203 18.4643 20.5625 15.8223 20.5625 12.5714ZM18.8125 12.5714C18.8125 14.9531 16.6523 16.8929 14 16.8929C11.3477 16.8929 9.1875 14.9531 9.1875 12.5714C9.1875 10.1897 11.3477 8.25 14 8.25C16.6523 8.25 18.8125 10.1897 18.8125 12.5714Z" fill="#EEF3EA" fill-opacity="0.88"/>
</svg>
