<svg width="25" height="22" viewBox="0 0 25 22" fill="none" xmlns="http://www.w3.org/2000/svg">
<path d="M24.4689 17.0011L18.7514 11.9699C17.6235 10.9774 15.9391 10.7841 14.5817 11.3727L9.37692 6.7927V4.1246L3.12727 0L0.00244123 2.74973L4.68968 8.2492H7.72174L12.9265 12.8292C12.2625 14.0236 12.4773 15.5059 13.6052 16.4984L19.3227 21.5295C20.0355 22.1568 21.1878 22.1568 21.8958 21.5295L24.4689 19.2653C25.1768 18.638 25.1768 17.6241 24.4689 17.0011ZM16.1978 9.66702C17.5796 9.66702 18.8783 10.1396 19.8549 10.9989L20.8021 11.8324C21.5735 11.536 22.3059 11.1235 22.9406 10.565C24.752 8.971 25.3672 6.72825 24.7911 4.69173C24.6837 4.30505 24.132 4.17186 23.8097 4.45542L20.1771 7.65199L16.8619 7.16649L16.3101 4.24919L19.9427 1.05263C20.265 0.769066 20.1087 0.283566 19.6644 0.184748C17.3501 -0.317938 14.8014 0.223416 12.9949 1.8131C11.6034 3.03759 10.9491 4.65306 10.9833 6.26423L14.9918 9.79162C15.3873 9.70999 15.7975 9.66702 16.1978 9.66702ZM11.1249 13.1901L8.35647 10.754L0.915476 17.3061C-0.305159 18.3802 -0.305159 20.1203 0.915476 21.1944C2.13611 22.2685 4.11354 22.2685 5.33418 21.1944L11.369 15.884C10.9979 15.029 10.8856 14.0967 11.1249 13.1901ZM3.12727 20.2793C2.48277 20.2793 1.95546 19.8153 1.95546 19.2481C1.95546 18.6767 2.47789 18.217 3.12727 18.217C3.77665 18.217 4.29908 18.6767 4.29908 19.2481C4.29908 19.8153 3.77665 20.2793 3.12727 20.2793Z" fill="white"/>
</svg>
