<svg width="30" height="32" viewBox="0 0 30 32" fill="none" xmlns="http://www.w3.org/2000/svg">
<path d="M13.75 22C13.75 21.4889 13.5883 20.9836 13.265 20.484C12.9417 19.9844 12.5825 19.4622 12.1875 18.9173C11.7917 18.3724 11.4321 17.8053 11.1088 17.216C10.7854 16.6267 10.6242 15.9991 10.625 15.3333C10.625 14.0444 11.0521 12.9444 11.9062 12.0333C12.7604 11.1222 13.7917 10.6667 15 10.6667C16.2083 10.6667 17.2396 11.1222 18.0938 12.0333C18.9479 12.9444 19.375 14.0444 19.375 15.3333C19.375 16 19.2133 16.628 18.89 17.2173C18.5667 17.8067 18.2075 18.3729 17.8125 18.916C17.4167 19.4609 17.0571 19.9836 16.7338 20.484C16.4104 20.9844 16.2492 21.4898 16.25 22H13.75ZM15 25.3333C14.6458 25.3333 14.3487 25.2053 14.1087 24.9493C13.8687 24.6933 13.7492 24.3769 13.75 24V23.3333H16.25V24C16.25 24.3778 16.13 24.6947 15.89 24.9507C15.65 25.2067 15.3533 25.3342 15 25.3333ZM23.125 24.6667C22.9583 24.4889 22.8696 24.2667 22.8588 24C22.8479 23.7333 22.9263 23.5 23.0938 23.3C23.8854 22.3 24.5054 21.1831 24.9537 19.9493C25.4021 18.7156 25.6258 17.3991 25.625 16C25.625 14.6 25.4012 13.2831 24.9537 12.0493C24.5062 10.8156 23.8862 9.69911 23.0938 8.7C22.9271 8.5 22.8488 8.26666 22.8588 8C22.8688 7.73333 22.9575 7.51111 23.125 7.33333C23.3333 7.11111 23.5783 7.00533 23.86 7.016C24.1417 7.02666 24.3654 7.14355 24.5312 7.36666C25.4688 8.54444 26.1979 9.86666 26.7188 11.3333C27.2396 12.8 27.5 14.3556 27.5 16C27.5 17.6444 27.2396 19.2 26.7188 20.6667C26.1979 22.1333 25.4688 23.4556 24.5312 24.6333C24.3646 24.8556 24.1408 24.9724 23.86 24.984C23.5792 24.9956 23.3342 24.8898 23.125 24.6667ZM5.46875 24.6333C4.53125 23.4556 3.80208 22.1333 3.28125 20.6667C2.76042 19.2 2.5 17.6444 2.5 16C2.5 14.3556 2.76042 12.8 3.28125 11.3333C3.80208 9.86666 4.53125 8.54444 5.46875 7.36666C5.63542 7.14444 5.85917 7.02755 6.14 7.016C6.42083 7.00444 6.66583 7.11022 6.875 7.33333C7.04167 7.51111 7.13042 7.73333 7.14125 8C7.15208 8.26666 7.07375 8.5 6.90625 8.7C6.11458 9.7 5.49458 10.8169 5.04625 12.0507C4.59792 13.2844 4.37417 14.6009 4.375 16C4.375 17.4 4.59875 18.7169 5.04625 19.9507C5.49375 21.1844 6.11375 22.3009 6.90625 23.3C7.07292 23.5 7.15125 23.7333 7.14125 24C7.13125 24.2667 7.0425 24.4889 6.875 24.6667C6.66667 24.8889 6.42167 24.9947 6.14 24.984C5.85833 24.9733 5.63458 24.8564 5.46875 24.6333ZM20.5 21.8667C20.3333 21.6889 20.2396 21.4724 20.2188 21.2173C20.1979 20.9622 20.2708 20.7342 20.4375 20.5333C20.8958 19.9111 21.25 19.2111 21.5 18.4333C21.75 17.6556 21.875 16.8444 21.875 16C21.875 15.1556 21.75 14.3444 21.5 13.5667C21.25 12.7889 20.8958 12.0889 20.4375 11.4667C20.2708 11.2667 20.1979 11.0391 20.2188 10.784C20.2396 10.5289 20.3333 10.312 20.5 10.1333C20.7083 9.91111 20.9429 9.80578 21.2037 9.81733C21.4646 9.82889 21.6779 9.94533 21.8438 10.1667C22.4479 10.9667 22.9167 11.8613 23.25 12.8507C23.5833 13.84 23.75 14.8898 23.75 16C23.75 17.1111 23.5833 18.1613 23.25 19.1507C22.9167 20.14 22.4479 21.0342 21.8438 21.8333C21.6771 22.0556 21.4633 22.1724 21.2025 22.184C20.9417 22.1956 20.7075 22.0898 20.5 21.8667ZM8.15625 21.8333C7.55208 21.0333 7.08333 20.1391 6.75 19.1507C6.41667 18.1622 6.25 17.112 6.25 16C6.25 14.8889 6.41667 13.8387 6.75 12.8493C7.08333 11.86 7.55208 10.9658 8.15625 10.1667C8.32292 9.94444 8.54167 9.83333 8.8125 9.83333C9.08333 9.83333 9.32292 9.94444 9.53125 10.1667C9.69792 10.3444 9.78667 10.5556 9.7975 10.8C9.80833 11.0444 9.73 11.2667 9.5625 11.4667C9.10417 12.0889 8.75 12.7889 8.5 13.5667C8.25 14.3444 8.125 15.1556 8.125 16C8.125 16.8444 8.25 17.6556 8.5 18.4333C8.75 19.2111 9.10417 19.9111 9.5625 20.5333C9.72917 20.7333 9.80208 20.9609 9.78125 21.216C9.76042 21.4711 9.66667 21.688 9.5 21.8667C9.29167 22.0889 9.0575 22.1947 8.7975 22.184C8.5375 22.1733 8.32375 22.0564 8.15625 21.8333Z" fill="white"/>
</svg>
