<svg width="25" height="20" viewBox="0 0 25 20" fill="none" xmlns="http://www.w3.org/2000/svg">
<path d="M22.6562 20H2.34375C1.04932 20 0 18.8807 0 17.5V2.5C0 1.11927 1.04932 0 2.34375 0H22.6562C23.9507 0 25 1.11927 25 2.5V17.5C25 18.8807 23.9507 20 22.6562 20ZM5.46875 2.91667C3.95859 2.91667 2.73438 4.2225 2.73438 5.83333C2.73438 7.44417 3.95859 8.75 5.46875 8.75C6.97891 8.75 8.20312 7.44417 8.20312 5.83333C8.20312 4.2225 6.97891 2.91667 5.46875 2.91667ZM3.125 16.6667H21.875V10.8333L17.6018 6.27526C17.373 6.0312 17.002 6.0312 16.7731 6.27526L10.1562 13.3333L7.44556 10.4419C7.21675 10.1979 6.84575 10.1979 6.61689 10.4419L3.125 14.1667V16.6667Z" fill="#FFF3F3"/>
</svg>
