<svg width="59" height="41" viewBox="0 0 59 41" fill="none" xmlns="http://www.w3.org/2000/svg">
<g filter="url(#filter0_d_302_1035)">
<path d="M37.7623 13.8833C35.3838 15.5362 32.5451 17.6838 32.1966 20.4787C32.5451 23.2736 35.3839 25.4212 37.7623 27.0741C40.9835 29.003 43.023 31.8585 43.023 35.0452C43.023 35.0508 43.0224 35.0564 43.0223 35.062H43.023V39.5483H12.7505V35.062H12.7512C12.7512 35.0564 12.7505 35.0508 12.7505 35.0452C12.7505 31.8585 14.79 29.003 18.0112 27.0741C20.3897 25.4212 23.2284 23.2736 23.5769 20.4787C23.2284 17.6838 20.3896 15.5362 18.0112 13.8833C14.79 11.9544 12.7505 9.09888 12.7505 5.91217V1.35829H43.023V5.91217C43.023 9.09888 40.9835 11.9544 37.7623 13.8833Z" fill="#C3EA9C"/>
<path d="M27.8867 34.2337C29.0134 34.2337 34.7404 38.5653 34.7404 38.5653H21.0331C21.0331 38.5653 26.7601 34.2337 27.8867 34.2337ZM27.2818 28.4823C27.1916 28.4815 27.1022 28.4931 27.0186 28.5165C26.935 28.5399 26.8589 28.5746 26.7948 28.6186C26.7307 28.6626 26.6797 28.715 26.645 28.7728C26.6102 28.8305 26.5923 28.8925 26.5923 28.9552C26.5923 29.0178 26.6102 29.0798 26.645 29.1376C26.6797 29.1954 26.7307 29.2478 26.7948 29.2918C26.8589 29.3358 26.935 29.3705 27.0186 29.3939C27.1022 29.4173 27.1916 29.4289 27.2818 29.4281C27.4607 29.4265 27.6315 29.3759 27.7573 29.2874C27.883 29.1989 27.9535 29.0795 27.9535 28.9552C27.9535 28.8308 27.883 28.7114 27.7573 28.6229C27.6315 28.5344 27.4607 28.4839 27.2818 28.4823ZM27.9623 30.1638C27.8722 30.163 27.7828 30.1746 27.6992 30.198C27.6156 30.2214 27.5395 30.2561 27.4754 30.3001C27.4112 30.3441 27.3603 30.3965 27.3256 30.4543C27.2908 30.5121 27.2729 30.5741 27.2729 30.6367C27.2729 30.6994 27.2908 30.7614 27.3256 30.8191C27.3603 30.8769 27.4112 30.9293 27.4754 30.9733C27.5395 31.0173 27.6156 31.052 27.6992 31.0754C27.7828 31.0988 27.8722 31.1104 27.9623 31.1096C28.1413 31.108 28.3121 31.0575 28.4378 30.969C28.5636 30.8805 28.634 30.7611 28.634 30.6367C28.634 30.5124 28.5636 30.393 28.4378 30.3045C28.3121 30.216 28.1413 30.1654 27.9623 30.1638ZM26.3133 32.9867C26.2232 32.9858 26.1338 32.9975 26.0502 33.0209C25.9666 33.0443 25.8905 33.079 25.8264 33.123C25.7622 33.167 25.7113 33.2194 25.6765 33.2772C25.6418 33.3349 25.6239 33.3969 25.6239 33.4596C25.6239 33.5222 25.6418 33.5842 25.6765 33.642C25.7113 33.6998 25.7622 33.7522 25.8264 33.7962C25.8905 33.8401 25.9666 33.8748 26.0502 33.8982C26.1338 33.9216 26.2232 33.9333 26.3133 33.9325C26.4923 33.9308 26.6631 33.8803 26.7888 33.7918C26.9145 33.7033 26.985 33.5839 26.985 33.4596C26.985 33.3352 26.9145 33.2158 26.7888 33.1273C26.6631 33.0388 26.4923 32.9883 26.3133 32.9867ZM28.3368 26.3266C28.2467 26.3258 28.1573 26.3375 28.0737 26.3609C27.9901 26.3843 27.914 26.419 27.8499 26.463C27.7857 26.5069 27.7348 26.5594 27.7001 26.6171C27.6653 26.6749 27.6474 26.7369 27.6474 26.7995C27.6474 26.8622 27.6653 26.9242 27.7001 26.982C27.7348 27.0397 27.7857 27.0921 27.8499 27.1361C27.914 27.1801 27.9901 27.2148 28.0737 27.2382C28.1573 27.2616 28.2467 27.2733 28.3368 27.2724C28.5158 27.2708 28.6866 27.2203 28.8123 27.1318C28.9381 27.0433 29.0086 26.9239 29.0086 26.7995C29.0086 26.6752 28.9381 26.5558 28.8123 26.4673C28.6866 26.3788 28.5158 26.3283 28.3368 26.3266ZM16.6228 9.52345C16.6228 11.4866 19.8183 13.2459 21.8027 14.4342C23.268 15.4525 25.7733 17.3794 25.7733 19.7984C25.7733 19.8795 25.7789 19.9571 25.788 20.0323C25.8616 22.0084 26.2257 24.2122 27.1291 24.9985C27.0566 25.0602 27.0077 25.1335 26.9869 25.2117C26.966 25.29 26.9739 25.3706 27.0099 25.4462C27.0458 25.5217 27.1086 25.5898 27.1924 25.644C27.2762 25.6982 27.3783 25.7368 27.4894 25.7563C27.6004 25.7758 27.7167 25.7755 27.8275 25.7555C27.9383 25.7355 28.0401 25.6963 28.1233 25.6417C28.2066 25.587 28.2686 25.5187 28.3038 25.443C28.3389 25.3672 28.346 25.2866 28.3244 25.2084C29.5372 24.6901 29.9578 21.997 29.997 19.6247C30.2044 17.5825 32.5704 15.4073 33.9708 14.4342C35.9552 13.2459 39.1507 11.4867 39.1507 9.52345C39.1507 8.56836 16.6228 8.56836 16.6228 9.52345ZM28.6687 32.0856C28.5786 32.0848 28.4892 32.0964 28.4056 32.1198C28.322 32.1432 28.2459 32.1779 28.1818 32.2219C28.1176 32.2659 28.0667 32.3183 28.0319 32.3761C27.9972 32.4339 27.9793 32.4959 27.9793 32.5585C27.9793 32.6211 27.9972 32.6832 28.0319 32.7409C28.0667 32.7987 28.1176 32.8511 28.1818 32.8951C28.2459 32.9391 28.322 32.9738 28.4056 32.9972C28.4892 33.0206 28.5786 33.0322 28.6687 33.0314C28.8477 33.0298 29.0185 32.9793 29.1442 32.8908C29.2699 32.8022 29.3404 32.6829 29.3404 32.5585C29.3404 32.4342 29.2699 32.3148 29.1442 32.2263C29.0185 32.1378 28.8477 32.0872 28.6687 32.0856Z" fill="#5D4C2E"/>
<path d="M43.0232 2.53263H12.7506C11.8172 2.53263 11.0605 2.00684 11.0605 1.3582C11.0605 0.70957 11.8172 0.183777 12.7506 0.183777H43.0232C43.9566 0.183777 44.7132 0.70957 44.7132 1.3582C44.7132 2.00684 43.9565 2.53263 43.0232 2.53263ZM44.7132 39.5483C44.7132 38.8997 43.9566 38.374 43.0232 38.374H12.7506C11.8172 38.374 11.0605 38.8997 11.0605 39.5483C11.0605 40.197 11.8172 40.7227 12.7506 40.7227H43.0232C43.9565 40.7227 44.7132 40.197 44.7132 39.5483Z" fill="#CFAC93"/>
<path d="M39.1507 9.24359C39.1507 9.97037 34.1077 10.5596 27.8867 10.5596C21.6658 10.5596 16.6228 9.97037 16.6228 9.24359C16.6228 8.5168 21.6658 7.92758 27.8867 7.92758C34.1077 7.92758 39.1507 8.5168 39.1507 9.24359Z" fill="#80A3FF"/>
</g>
<defs>
<filter id="filter0_d_302_1035" x="-4" y="0" width="67" height="49" filterUnits="userSpaceOnUse" color-interpolation-filters="sRGB">
<feFlood flood-opacity="0" result="BackgroundImageFix"/>
<feColorMatrix in="SourceAlpha" type="matrix" values="0 0 0 0 0 0 0 0 0 0 0 0 0 0 0 0 0 0 127 0" result="hardAlpha"/>
<feOffset dy="4"/>
<feGaussianBlur stdDeviation="2"/>
<feComposite in2="hardAlpha" operator="out"/>
<feColorMatrix type="matrix" values="0 0 0 0 0 0 0 0 0 0 0 0 0 0 0 0 0 0 0.25 0"/>
<feBlend mode="normal" in2="BackgroundImageFix" result="effect1_dropShadow_302_1035"/>
<feBlend mode="normal" in="SourceGraphic" in2="effect1_dropShadow_302_1035" result="shape"/>
</filter>
</defs>
</svg>
