<svg width="24" height="20" viewBox="0 0 24 20" fill="none" xmlns="http://www.w3.org/2000/svg">
<path d="M24 5V17.8571C24 19.0402 22.9922 20 21.75 20H2.25C1.00781 20 0 19.0402 0 17.8571V5C0 3.81696 1.00781 2.85714 2.25 2.85714H6.375L6.95156 1.38839C7.27969 0.553571 8.11875 0 9.05625 0H14.9391C15.8766 0 16.7156 0.553571 17.0438 1.38839L17.625 2.85714H21.75C22.9922 2.85714 24 3.81696 24 5ZM17.625 11.4286C17.625 8.47321 15.1031 6.07143 12 6.07143C8.89688 6.07143 6.375 8.47321 6.375 11.4286C6.375 14.3839 8.89688 16.7857 12 16.7857C15.1031 16.7857 17.625 14.3839 17.625 11.4286ZM16.125 11.4286C16.125 13.5938 14.2734 15.3571 12 15.3571C9.72656 15.3571 7.875 13.5938 7.875 11.4286C7.875 9.26339 9.72656 7.5 12 7.5C14.2734 7.5 16.125 9.26339 16.125 11.4286Z" fill="#995E5E"/>
</svg>
