<svg width="27" height="16" viewBox="0 0 27 16" fill="none" xmlns="http://www.w3.org/2000/svg">
<path d="M26.0357 13.7143H0.964286C0.708541 13.7143 0.463271 13.7745 0.282433 13.8817C0.101594 13.9888 0 14.1342 0 14.2857L0 15.4286C0 15.5801 0.101594 15.7255 0.282433 15.8326C0.463271 15.9398 0.708541 16 0.964286 16H26.0357C26.2915 16 26.5367 15.9398 26.7176 15.8326C26.8984 15.7255 27 15.5801 27 15.4286V14.2857C27 14.1342 26.8984 13.9888 26.7176 13.8817C26.5367 13.7745 26.2915 13.7143 26.0357 13.7143ZM26.0357 9.14286H0.964286C0.708541 9.14286 0.463271 9.20306 0.282433 9.31022C0.101594 9.41739 0 9.56273 0 9.71429L0 10.8571C0 11.0087 0.101594 11.154 0.282433 11.2612C0.463271 11.3684 0.708541 11.4286 0.964286 11.4286H26.0357C26.2915 11.4286 26.5367 11.3684 26.7176 11.2612C26.8984 11.154 27 11.0087 27 10.8571V9.71429C27 9.56273 26.8984 9.41739 26.7176 9.31022C26.5367 9.20306 26.2915 9.14286 26.0357 9.14286ZM26.0357 4.57143H0.964286C0.708541 4.57143 0.463271 4.63163 0.282433 4.7388C0.101594 4.84596 0 4.9913 0 5.14286L0 6.28571C0 6.43727 0.101594 6.58261 0.282433 6.68978C0.463271 6.79694 0.708541 6.85714 0.964286 6.85714H26.0357C26.2915 6.85714 26.5367 6.79694 26.7176 6.68978C26.8984 6.58261 27 6.43727 27 6.28571V5.14286C27 4.9913 26.8984 4.84596 26.7176 4.7388C26.5367 4.63163 26.2915 4.57143 26.0357 4.57143ZM26.0357 0H0.964286C0.708541 0 0.463271 0.0602039 0.282433 0.167368C0.101594 0.274531 0 0.419876 0 0.571429L0 1.71429C0 1.86584 0.101594 2.01118 0.282433 2.11835C0.463271 2.22551 0.708541 2.28571 0.964286 2.28571H26.0357C26.2915 2.28571 26.5367 2.22551 26.7176 2.11835C26.8984 2.01118 27 1.86584 27 1.71429V0.571429C27 0.419876 26.8984 0.274531 26.7176 0.167368C26.5367 0.0602039 26.2915 0 26.0357 0Z" fill="white"/>
</svg>
